<?xml version="1.0" standalone="no"?>
<!DOCTYPE svg PUBLIC "-//W3C//DTD SVG 1.1//EN" "http://www.w3.org/Graphics/SVG/1.1/DTD/svg11.dtd" >
<svg xmlns="http://www.w3.org/2000/svg">
<metadata></metadata>
<defs>
<font id="bryant_webregular" horiz-adv-x="1466" >
<font-face units-per-em="2048" ascent="1536" descent="-512" />
<missing-glyph horiz-adv-x="614" />
<glyph horiz-adv-x="2048" />
<glyph horiz-adv-x="2048" />
<glyph unicode="&#xd;" horiz-adv-x="682" />
<glyph unicode=" "  horiz-adv-x="614" />
<glyph unicode="&#x09;" horiz-adv-x="614" />
<glyph unicode="&#xa0;" horiz-adv-x="614" />
<glyph unicode="!" horiz-adv-x="573" d="M201 74q0 35 25.5 60.5t60.5 25.5t60.5 -25.5t25.5 -60.5t-25.5 -60.5t-60.5 -25.5t-60.5 25.5t-25.5 60.5zM225 756v563q0 25 16.5 43t45 18t45 -18.5t16.5 -42.5v-563l-29 -400q-4 -37 -32.5 -37t-32.5 37z" />
<glyph unicode="&#x22;" horiz-adv-x="782" d="M154 938v387q0 23 14 39t41 16t41 -16t14 -39v-387q0 -23 -14 -39t-41 -16t-41 16t-14 39zM518 938v387q0 23 14.5 39t41 16t41 -16t14.5 -39v-387q0 -23 -14.5 -39t-41 -16t-41 16t-14.5 39z" />
<glyph unicode="#" d="M123 442q0 25 14.5 38.5t36.5 13.5h197l43 395h-195q-18 0 -31.5 13t-13.5 32q0 23 13.5 37t41.5 14h195l39 344q6 51 55 51q23 0 37 -14t10 -45l-39 -336h490l39 344q6 51 57 51q25 0 38 -15t9 -40l-39 -340h193q18 0 32.5 -11t14.5 -34q0 -20 -14.5 -35.5t-36.5 -15.5 h-199l-43 -395h195q45 0 45 -45q0 -20 -14.5 -36t-37.5 -16h-198l-41 -360q-4 -23 -15.5 -38t-39.5 -15q-31 0 -41.5 19.5t-6.5 41.5l39 352h-489l-43 -362q-4 -23 -16.5 -37t-39 -14t-38 16t-9.5 37l41 360h-188q-20 0 -33.5 13.5t-13.5 31.5zM473 494h490l45 395h-490z " />
<glyph unicode="$" horiz-adv-x="1251" d="M154 219q0 23 14 36t37 13q14 0 26.5 -5t22.5 -13q37 -27 76 -50.5t85 -41t102 -27.5t128 -10q156 0 249 63.5t93 173.5q0 57 -29.5 99.5t-81 74t-118.5 58.5l-142 53q-123 43 -207.5 85t-137 88t-76 96.5t-23.5 111.5q0 147 112.5 230t309.5 92v186q0 20 14.5 36.5 t43 16.5t43 -16.5t14.5 -36.5v-189q86 -8 171 -36.5t158 -75.5q29 -18 29 -43q0 -18 -13.5 -35.5t-41.5 -17.5q-16 0 -33 10q-92 51 -178 74.5t-162 23.5q-346 0 -346 -217q0 -51 20.5 -87t61.5 -66.5t103.5 -57.5t148.5 -59q121 -45 211 -84t150.5 -83t90 -98.5 t29.5 -132.5q0 -141 -107.5 -233t-306.5 -109v-184q0 -20 -14 -36.5t-43 -16.5t-43 16.5t-14 36.5v186q-117 10 -218.5 50.5t-179.5 101.5q-28 24 -28 49z" />
<glyph unicode="%" horiz-adv-x="1734" d="M123 1062.5q0 67.5 24.5 127t68.5 103.5t104.5 70t130 26t130 -26t104.5 -70t68.5 -103.5t24.5 -127t-24.5 -126.5t-68.5 -103.5t-104.5 -70t-130 -25.5t-130 25.5t-104.5 70t-68.5 103.5t-24.5 126.5zM227 1063q0 -49 15.5 -91t45 -74t70.5 -50.5t92.5 -18.5t92.5 18.5 t69.5 50.5t45 74t16.5 91t-16.5 91t-45 74t-69.5 50t-92.5 18t-92.5 -18t-70.5 -50t-45 -74t-15.5 -91zM418 25q0 14 18 45l787 1286q14 27 45 26q20 0 34.5 -13t14.5 -36q0 -16 -10 -33l-797 -1298q-14 -27 -43 -27q-25 0 -37 16t-12 34zM952 301q0 68 24.5 127t69 103 t104.5 70t130 26t130 -26t104.5 -70t69 -103t24.5 -127t-24.5 -127t-69 -103t-104.5 -70t-130 -26t-130 26t-104.5 70t-69 103t-24.5 127zM1057 301q0 -49 15 -91t45 -74t71 -50t92 -18t92 18t69.5 50t45 74t16.5 91t-16.5 91t-45 74t-69.5 50.5t-92 18.5t-92 -18.5 t-71 -50.5t-45 -74t-15 -91z" />
<glyph unicode="&#x26;" d="M143 326q0 86 30 154.5t82 123.5t121.5 99.5t149.5 82.5q-70 90 -110.5 171t-40.5 169q0 113 75.5 188t217.5 75q131 0 205.5 -76t74.5 -189q0 -111 -77.5 -206t-196.5 -162l107 -163l100 -147l100 -147q51 68 81 132l58 130q14 31 45 31q27 0 41.5 -14.5t14.5 -36.5 q0 -6 -4 -19q-31 -74 -70 -148.5t-105 -160.5q45 -63 85 -104t108 -41q43 0 70.5 11t56.5 27q8 6 22 7q18 0 29.5 -13.5t11.5 -29.5q0 -18 -14 -33q-29 -31 -82 -46.5t-94 -15.5q-51 0 -88 10.5t-67.5 31t-56.5 50t-56 70.5q-74 -74 -182.5 -118t-227.5 -44q-104 0 -182 29 t-129 76t-77 110.5t-26 135.5zM262 330q0 -115 76 -186.5t225 -71.5q98 0 186.5 39t157.5 110l-166 243l-163 241q-68 -37 -125.5 -75t-99.5 -81t-66.5 -96t-24.5 -123zM489 1124q0 -70 39 -144.5t95 -145.5q43 20 82.5 52t68.5 69.5t46.5 79.5t17.5 83q0 74 -44 125 t-130 51q-78 0 -126.5 -40t-48.5 -130z" />
<glyph unicode="'" horiz-adv-x="417" d="M154 938v387q0 23 14 39t41 16t41 -16t14 -39v-387q0 -23 -14 -39t-41 -16t-41 16t-14 39z" />
<glyph unicode="(" horiz-adv-x="645" d="M184 553q0 215 60.5 427t206.5 450q8 10 18 17t27 7q27 0 42 -16.5t15 -36.5q0 -16 -10 -33q-59 -102 -103.5 -200.5t-74 -197t-44 -201.5t-14.5 -216q0 -115 14.5 -217.5t44 -200.5t73.5 -196.5t104 -200.5q10 -16 10 -33q0 -20 -15.5 -36.5t-41.5 -16.5q-16 0 -26.5 7 t-18.5 17q-145 236 -206 449t-61 428z" />
<glyph unicode=")" horiz-adv-x="645" d="M92 -295q0 16 10 33q59 102 103.5 200.5t74 196.5t44 200.5t14.5 217.5q0 113 -14.5 216t-44 201.5t-73.5 197t-104 200.5q-10 16 -10 33q0 20 15.5 36.5t42.5 16.5q16 0 26 -7t19 -17q145 -238 205.5 -450t60.5 -427t-60.5 -428t-205.5 -449q-8 -10 -18.5 -17t-26.5 -7 q-27 0 -42.5 16.5t-15.5 36.5z" />
<glyph unicode="*" horiz-adv-x="839" d="M92 1093.5q0 34.5 35 34.5h231l-118 197q-6 12 -7 23q0 14 10.5 23t26.5 9q20 0 31 -16l119 -205l119 205q10 16 30 16q16 0 26.5 -9t10.5 -23q0 -10 -6 -23l-119 -197h232q35 0 35 -34.5t-35 -34.5h-232l119 -195q8 -14 8 -24q0 -16 -11 -24.5t-28 -8.5q-20 0 -32 22 l-117 201l-117 -201q-12 -23 -33 -22q-16 0 -27.5 8t-11.5 25q0 10 9 24l118 195h-231q-35 0 -35 34.5z" />
<glyph unicode="+" horiz-adv-x="1146" d="M113 661.5q0 24.5 17 40t42 15.5h342v346q0 25 17.5 42t42 17t42 -17.5t17.5 -41.5v-346h342q25 0 42 -15.5t17 -40t-17.5 -40t-41.5 -15.5h-342v-346q0 -25 -17.5 -42t-42 -17t-42 17.5t-17.5 41.5v346h-342q-25 0 -42 15.5t-17 40z" />
<glyph unicode="," horiz-adv-x="421" d="M96 -283q0 12 3 21.5t7 19.5q29 86 40.5 151.5t11.5 141.5v88q0 25 14 41.5t41 16.5t41 -16.5t14 -41.5v-88q0 -92 -12 -168t-43 -159q-8 -23 -21.5 -39.5t-41.5 -16.5q-25 0 -39.5 13t-14.5 36z" />
<glyph unicode="-" horiz-adv-x="897" d="M143 507.5q0 24.5 15.5 38t38.5 13.5h503q23 0 38.5 -13.5t15.5 -38t-15.5 -37.5t-38.5 -13h-503q-23 0 -38.5 13t-15.5 37.5z" />
<glyph unicode="." horiz-adv-x="479" d="M154 74q0 35 25.5 60.5t60 25.5t60.5 -25.5t26 -60.5t-26 -60.5t-60.5 -25.5t-60 25.5t-25.5 60.5z" />
<glyph unicode="/" horiz-adv-x="921" d="M133 -170q0 8 4 25l545 1591q12 39 55 39q18 0 34.5 -13.5t16.5 -39.5q0 -12 -4 -25l-542 -1585q-16 -41 -56 -41q-29 0 -41 15.5t-12 33.5z" />
<glyph unicode="0" horiz-adv-x="1400" d="M123 682q0 143 40 271t115.5 225.5t182 154t240 56.5t240 -56.5t182 -154t115.5 -225.5t40 -271t-40 -271t-115.5 -225.5t-182 -154t-240 -56.5t-240 56.5t-182 154t-115.5 225.5t-40 271zM246 682q0 -123 30.5 -230.5t89 -189.5t142.5 -129t192.5 -47t192.5 47 t142.5 129t89 189.5t30.5 230.5t-30.5 230.5t-89 189.5t-142.5 129t-192.5 47t-192.5 -47t-142.5 -129t-89 -189.5t-30.5 -230.5z" />
<glyph unicode="1" horiz-adv-x="745" d="M57 1210.5q0 24.5 13.5 38t33.5 19.5l336 104q10 4 21.5 6t19.5 2q59 0 60 -63v-1272q0 -25 -16.5 -43t-45 -18t-45 18t-16.5 43v1200l-281 -86q-16 -4 -22 -4q-23 0 -40.5 15.5t-17.5 40z" />
<glyph unicode="2" horiz-adv-x="1284" d="M137 55q0 133 31 224.5t88 159t139 117.5t187 99q121 57 203.5 102.5t134 88.5t74 90t22.5 106q0 117 -93.5 177.5t-263.5 60.5q-119 0 -218 -31.5t-189 -99.5q-16 -12 -33 -12q-23 0 -38 14t-15 37q0 25 19.5 44t56.5 42q92 59 200.5 87t225.5 28q106 0 193 -24 t148.5 -69t95.5 -109.5t34 -146.5q0 -66 -21.5 -121t-73 -109t-138.5 -107.5t-216 -114.5q-113 -53 -192.5 -100.5t-132 -101.5t-77 -121.5t-24.5 -158.5h834q23 0 38 -15t15 -37.5t-15.5 -38t-37.5 -15.5h-905q-23 0 -39.5 16t-16.5 39z" />
<glyph unicode="3" horiz-adv-x="1284" d="M113 194.5q0 26.5 17 39t40 12.5q20 0 37 -15q84 -68 184.5 -110.5t239.5 -42.5q84 0 156.5 20.5t126 60.5t84 97t30.5 131q0 129 -99.5 214t-299.5 85h-148q-23 0 -38 16.5t-15 36.5q0 23 15.5 38.5t37.5 15.5h133q154 0 239 71.5t85 179.5q0 121 -81 180.5t-224 59.5 q-80 0 -147.5 -19.5t-129.5 -50.5q-14 -8 -26.5 -13t-28.5 -5q-25 0 -38 14.5t-13 32.5q0 25 15.5 40t37.5 26q80 43 168 61.5t170 18.5q94 0 172 -24t133 -67t85 -105.5t30 -139.5q0 -92 -52.5 -170t-181.5 -133q68 -12 127.5 -42t102.5 -76t68.5 -108.5t25.5 -140.5 q0 -92 -40 -167t-109.5 -129t-165 -83t-205.5 -29q-168 0 -284 47.5t-210 124.5q-24 21 -24 47.5z" />
<glyph unicode="4" horiz-adv-x="1304" d="M61 436q0 20 19 39l788 879q25 27 56 26q29 0 42 -19.5t13 -45.5v-828h225q23 0 38 -14t15 -36.5t-15 -37t-38 -14.5h-225v-340q0 -27 -15.5 -44t-44 -17t-44 17t-15.5 44v340h-745q-54 0 -54 51zM229 487h631v703z" />
<glyph unicode="5" horiz-adv-x="1298" d="M133 193q0 25 17.5 39t39.5 14q18 0 37 -15q94 -80 193.5 -115.5t230.5 -35.5q94 0 168 25.5t125 70.5t78 107.5t27 134.5q0 80 -28 141.5t-77 103.5t-116.5 64.5t-149.5 22.5q-106 0 -194.5 -31t-176.5 -105q-20 -16 -47 -16q-33 0 -46 19.5t-9 41.5l104 654 q10 51 62 51h633q23 0 39 -15.5t16 -38t-15.5 -38t-39.5 -15.5h-588l-84 -512q63 53 154.5 81t195.5 28q106 0 196.5 -29.5t156 -85t101 -135.5t35.5 -182q0 -92 -35.5 -174t-102 -143.5t-163 -96.5t-219.5 -35q-158 0 -280.5 45t-214.5 132q-10 10 -16.5 19.5t-6.5 23.5z " />
<glyph unicode="6" horiz-adv-x="1288" d="M143 455q0 147 42 283t121 253t189.5 209t245.5 152q29 12 62 24.5t65 12.5q51 0 52 -41q0 -23 -15.5 -34t-46.5 -24q-137 -55 -237.5 -126.5t-171 -158.5t-118.5 -189.5t-81 -219.5q66 123 184.5 183.5t265.5 60.5q111 0 199 -32t150.5 -89t96.5 -134t34 -167t-34 -170 t-98.5 -140.5t-159.5 -96.5t-220 -36q-129 0 -227.5 34t-165 96.5t-99.5 150.5t-33 199zM270 409.5q0 -73.5 22.5 -134t72 -105.5t125 -69.5t182.5 -24.5q86 0 157.5 24.5t123 69.5t80 107.5t28.5 138.5q0 145 -96.5 234t-278.5 89q-82 0 -156.5 -24.5t-132 -67.5 t-92.5 -103.5t-35 -134z" />
<glyph unicode="7" horiz-adv-x="1136" d="M72 1310.5q0 22.5 16 38t39 15.5h885q63 0 63 -51q0 -18 -14 -37q-111 -141 -198 -278.5t-148.5 -285t-94 -311t-32.5 -356.5q0 -27 -16.5 -44t-45 -17t-45 17t-16.5 44q0 193 32.5 359.5t92 314t142.5 281t183 257.5h-788q-23 0 -39 15.5t-16 38z" />
<glyph unicode="8" horiz-adv-x="1335" d="M135 379q0 74 25.5 135t69.5 107.5t103.5 79t129.5 51.5q-111 49 -171.5 122.5t-60.5 176.5q0 78 34 140t92.5 106t138 68t172 24t172.5 -24t138 -68t92 -106.5t34 -139.5q0 -102 -60.5 -176t-171.5 -123q70 -18 129.5 -51t103.5 -79.5t69.5 -107.5t25.5 -135 q0 -86 -36 -161t-104.5 -128t-167.5 -84t-224 -31t-224.5 31t-168 84t-104.5 128t-36 161zM256 381q0 -141 109.5 -223t302 -82t302 82t109.5 223q0 76 -33.5 134t-90 97t-131 59.5t-156.5 20.5t-157 -20.5t-131 -59.5t-90 -97t-34 -134zM348 1044q0 -55 23.5 -101t66.5 -80 t101.5 -53t128 -19t128 19t101.5 53t66.5 80t23.5 101q0 117 -87 181.5t-232.5 64.5t-232.5 -64.5t-87 -181.5z" />
<glyph unicode="9" horiz-adv-x="1286" d="M117 946q0 90 33.5 170t99 140.5t161 96.5t218.5 36q129 0 227 -34t164.5 -96.5t99.5 -150.5t33 -199q0 -147 -42 -283.5t-121 -253t-189.5 -208.5t-245.5 -152q-29 -12 -61.5 -24.5t-65.5 -12.5q-51 0 -51 41q0 23 15.5 34t45.5 24q137 55 237.5 126.5t171.5 158.5 t119 189.5t81 219.5q-66 -123 -185 -183.5t-266 -60.5q-115 0 -204 32t-150.5 89t-93 134t-31.5 167zM236 948q0 -145 96 -234t278 -89q82 0 157 24.5t132 67.5t92 103.5t35 134t-22.5 134t-71.5 105.5t-125 69.5t-182 24.5q-86 0 -158 -24.5t-123 -69.5t-79.5 -107.5 t-28.5 -138.5z" />
<glyph unicode=":" horiz-adv-x="479" d="M154 74q0 35 25.5 60.5t60 25.5t60.5 -25.5t26 -60.5t-26 -60.5t-60.5 -25.5t-60 25.5t-25.5 60.5zM154 680q0 35 25.5 60.5t60 25.5t60.5 -25.5t26 -60.5t-26 -60.5t-60.5 -25.5t-60 25.5t-25.5 60.5z" />
<glyph unicode=";" horiz-adv-x="468" d="M113 -283q0 10 3 21.5t7 19.5q33 82 41 149.5t8 143.5v86q0 25 15.5 42.5t42 17.5t42 -17.5t15.5 -42.5v-86q0 -92 -13.5 -168t-44.5 -159q-8 -23 -20 -39.5t-43 -16.5q-25 0 -39 13t-14 36zM143 680q0 35 26 60.5t60.5 25.5t60 -25.5t25.5 -60.5t-25.5 -60.5t-60 -25.5 t-60.5 25.5t-26 60.5z" />
<glyph unicode="&#x3c;" horiz-adv-x="1105" d="M102 661.5q0 16.5 8.5 26.5t24.5 21l742 413q14 8 32 8q25 0 39.5 -15t14.5 -36q0 -33 -33 -49l-680 -368l680 -369q33 -16 33 -49q0 -20 -14.5 -35.5t-39.5 -15.5q-18 0 -32 8l-742 413q-16 10 -24.5 20.5t-8.5 27z" />
<glyph unicode="=" horiz-adv-x="1126" d="M174 477.5q0 24.5 17.5 38.5t39.5 14h664q23 0 40 -14t17 -38.5t-17 -39t-40 -14.5h-664q-23 0 -40 14.5t-17 39zM174 833.5q0 24.5 17.5 39t39.5 14.5h664q23 0 40 -14.5t17 -39t-17 -39t-40 -14.5h-664q-23 0 -40 14.5t-17 39z" />
<glyph unicode="&#x3e;" horiz-adv-x="1105" d="M143 244q0 33 33 49l680 369l-680 368q-33 16 -33 49q0 20 14.5 35.5t39.5 15.5q18 0 32 -8l742 -413q16 -10 24.5 -20.5t8.5 -27t-8.5 -26.5t-24.5 -21l-742 -413q-14 -8 -32 -8q-25 0 -39.5 15.5t-14.5 35.5z" />
<glyph unicode="?" horiz-adv-x="1007" d="M102 1227q0 20 11.5 31.5t33.5 25.5q78 51 172.5 78t200.5 27q86 0 159 -20.5t125 -59.5t81.5 -95.5t29.5 -130.5q0 -78 -46 -156.5t-158 -170.5q-61 -49 -98.5 -84t-57.5 -67t-26.5 -70.5t-6.5 -96.5v-84q0 -25 -17.5 -41t-45.5 -16q-27 0 -43.5 17.5t-16.5 39.5v82 q0 78 11.5 129t36 90t62.5 74t91 78q51 43 88 79t60.5 67.5t34 63.5t10.5 66q0 106 -79 150.5t-202 44.5q-90 0 -164 -22.5t-153 -69.5q-8 -4 -17.5 -8t-19.5 -4q-23 0 -39.5 15t-16.5 38zM375 74q0 35 25.5 60.5t60.5 25.5t60.5 -25.5t25.5 -60.5t-25.5 -60.5t-60.5 -25.5 t-60.5 25.5t-25.5 60.5z" />
<glyph unicode="@" horiz-adv-x="1548" d="M119 696q0 147 46 274.5t132 219.5t210 145.5t281 53.5q229 0 344 -115t115 -320v-540q0 -23 -13 -37.5t-38 -14.5t-38 14.5t-13 37.5v78q-35 -53 -98.5 -95.5t-159.5 -42.5q-74 0 -137.5 27t-108.5 74t-70.5 111.5t-25.5 138t25.5 138t70.5 111.5t108.5 74t137.5 27 q96 0 159.5 -42t98.5 -95v57q0 324 -359 323q-135 0 -239.5 -46t-177 -127t-110.5 -191.5t-38 -237.5q0 -129 44 -243.5t132 -200.5t217 -136t301 -50q121 0 238 24.5t252 79.5q8 4 22 4q20 0 29.5 -13.5t9.5 -25.5q0 -29 -28 -41q-121 -61 -255 -90t-268 -29 q-193 0 -341 56.5t-249.5 155t-153.5 229t-52 280.5zM649 704.5q0 -112.5 65.5 -186.5t176.5 -74q55 0 101 18.5t80 53.5t52.5 82t18.5 107q0 57 -18.5 105t-52.5 83t-80 53.5t-101 18.5q-111 0 -176.5 -74t-65.5 -186.5z" />
<glyph unicode="A" d="M98 39q0 12 8 29l570 1271q18 41 57 41t58 -41l569 -1271q8 -16 8 -29q0 -23 -15.5 -39t-43.5 -16q-23 0 -36 11t-20 28l-168 374h-704l-168 -374q-6 -16 -19.5 -27.5t-35.5 -11.5q-29 0 -44.5 16t-15.5 39zM428 506h610l-305 702z" />
<glyph unicode="B" horiz-adv-x="1325" d="M195 61v1242q0 27 16 44t45 17h465q88 0 161.5 -23.5t127 -66.5t84 -105.5t30.5 -140.5q0 -104 -48 -176t-163 -119q66 -10 124.5 -37.5t101.5 -72.5t68.5 -106.5t25.5 -141.5q0 -72 -28.5 -139.5t-87 -120t-144.5 -84t-203 -31.5h-514q-27 0 -44 18t-17 43zM317 106h461 q82 0 144.5 22t104.5 60.5t62.5 89t20.5 109.5q0 133 -90 206t-248 73h-455v-560zM317 772h416q63 0 113.5 19.5t85.5 53.5t52 78t17 93q0 119 -74.5 180t-203.5 61h-406v-485z" />
<glyph unicode="C" horiz-adv-x="1443" d="M119 682q0 145 48 274t137 225.5t215 152t282 55.5q92 0 170 -19.5t142.5 -54.5t117.5 -82t94 -103l11 -19q5 -9 5 -21q0 -25 -16 -40.5t-41 -15.5q-27 0 -43 23q-39 49 -82 89t-96 68.5t-117.5 45t-144.5 16.5q-133 0 -236.5 -49t-175.5 -131t-109.5 -189.5 t-37.5 -224.5t37.5 -224.5t109.5 -189.5t175.5 -131t236.5 -49q80 0 144.5 16.5t117.5 45t96 68.5t82 89q16 23 43 23q25 0 41 -15.5t16 -40.5q0 -12 -5 -21l-11 -20q-41 -55 -94 -102t-117.5 -82t-142.5 -54.5t-170 -19.5q-156 0 -282 55.5t-215 152t-137 225.5t-48 274z " />
<glyph unicode="D" horiz-adv-x="1417" d="M195 61v1242q0 27 17 44t44 17h389q156 0 281 -53.5t214 -145.5t137 -216t48 -267t-48 -267t-137 -216.5t-214 -145.5t-281 -53h-389q-29 0 -45 18t-16 43zM317 111h320q133 0 238.5 44t178 120.5t110.5 181t38 225.5t-38 225.5t-110.5 181t-178 120.5t-238.5 44h-320 v-1142z" />
<glyph unicode="E" horiz-adv-x="1193" d="M195 61v1242q0 27 17 44t44 17h788q23 0 39.5 -16.5t16.5 -39t-16.5 -39t-39.5 -16.5h-727v-493h422q23 0 39.5 -16.5t16.5 -39t-16.5 -39t-39.5 -16.5h-422v-538h730q23 0 39 -16.5t16 -39t-16.5 -39t-38.5 -16.5h-791q-27 0 -44 17t-17 44z" />
<glyph unicode="F" horiz-adv-x="1140" d="M195 45v1258q0 27 17 44t44 17h788q23 0 39.5 -16.5t16.5 -39t-16.5 -39t-39.5 -16.5h-727v-493h422q23 0 39.5 -16.5t16.5 -39t-16.5 -39t-39.5 -16.5h-422v-604q0 -27 -17 -44t-44 -17t-44 17t-17 44z" />
<glyph unicode="G" horiz-adv-x="1497" d="M119 682q0 150 50 279t141 224t216 149.5t275 54.5q141 0 263 -49.5t208 -141.5q16 -20 16 -42.5t-15.5 -38t-39.5 -15.5q-27 0 -43 16q-78 76 -173 117t-216 41q-127 0 -230.5 -47t-176 -129t-112.5 -189.5t-40 -228.5t35.5 -229.5t106.5 -191.5t176.5 -132t244.5 -49 q135 0 250.5 47t195.5 127v303h-391q-23 0 -38 15.5t-15 38t15.5 38t37.5 15.5h451q25 0 42 -15.5t17 -42.5v-354q0 -27 -16 -47q-84 -94 -225.5 -162t-327.5 -68q-172 0 -300 60.5t-213 161t-127 226.5t-42 259z" />
<glyph unicode="H" horiz-adv-x="1464" d="M195 45v1274q0 27 17 44t44 17t44 -17t17 -44v-567h830v567q0 27 17.5 44t44 17t44 -17t17.5 -44v-1274q0 -27 -17.5 -44t-44 -17t-44 17t-17.5 44v594h-830v-594q0 -27 -17 -44t-44 -17t-44 17t-17 44z" />
<glyph unicode="I" horiz-adv-x="532" d="M205 45v1274q0 27 17.5 44t44 17t44 -17t17.5 -44v-1274q0 -27 -17.5 -44t-44 -17t-44 17t-17.5 44z" />
<glyph unicode="J" horiz-adv-x="1210" d="M72 375q0 29 16 44t43 15q45 0 55 -49q33 -141 116 -221t237 -80q184 0 274 112.5t90 311.5v811q0 27 17.5 44t44 17t44 -17t17.5 -44v-807q0 -115 -28.5 -213t-89 -170t-151.5 -113t-216 -41q-98 0 -176 28t-135.5 77t-95.5 116.5t-58 149.5q-4 17 -4 29z" />
<glyph unicode="K" horiz-adv-x="1353" d="M195 45v1274q0 27 17 44t44 17t44 -17t17 -44v-735l793 780q16 16 41 16q29 0 44 -16t15 -37q0 -27 -18 -45l-451 -442l488 -764q6 -10 9 -18.5t3 -18.5q0 -23 -15.5 -39t-43.5 -16q-23 0 -33 8t-19 20l-475 746l-338 -332v-381q0 -27 -17 -44t-44 -17t-44 17t-17 44z " />
<glyph unicode="L" horiz-adv-x="1177" d="M195 61v1258q0 27 17 44t44 17t44 -17t17 -44v-1208h734q23 0 39 -16.5t16 -39t-16.5 -39t-38.5 -16.5h-795q-27 0 -44 17t-17 44z" />
<glyph unicode="M" horiz-adv-x="1732" d="M195 43v1278q0 27 16 43t43 16q23 0 35 -10t22 -29l555 -1185l555 1185q10 18 22.5 28.5t35.5 10.5q27 0 43 -16t16 -43v-1278q0 -25 -15.5 -42t-43.5 -17q-25 0 -41.5 17t-16.5 42v1044l-497 -1067q-16 -37 -56 -37l-2 1q-42 0 -57 36l-498 1067v-1044q0 -25 -16 -42 t-41 -17q-29 0 -44 17t-15 42z" />
<glyph unicode="N" horiz-adv-x="1480" d="M195 41v1280q0 27 16 43t45 16q16 0 27.5 -8t19.5 -18l866 -1147v1114q0 27 16.5 43t43 16t42 -17t15.5 -42v-1280q0 -23 -15.5 -40t-43.5 -17q-16 0 -26.5 7t-20.5 19l-869 1145v-1114q0 -23 -16 -40t-41 -17q-27 0 -43 17t-16 40z" />
<glyph unicode="O" horiz-adv-x="1585" d="M106 685q0 141 50 268q50 128 140.5 224.5t217.5 154t280.5 57.5t279.5 -57.5t216 -154t139.5 -224.5t49.5 -271t-49.5 -271t-139.5 -225.5t-216 -154t-279.5 -56.5t-280.5 56.5t-217 154t-140 225.5q-51 129 -51 274zM229 682q0 -117 39 -225.5t112 -191.5t177.5 -132 t237.5 -49q131 0 235.5 49t177 132t110.5 191.5t38 225.5t-38 225.5t-110.5 191.5t-177 132t-235.5 49q-133 0 -237.5 -49t-177.5 -132t-112 -191.5t-39 -225.5z" />
<glyph unicode="P" horiz-adv-x="1284" d="M195 45v1258q0 27 18 44t43 17h547q100 0 179 -29.5t132 -81t81 -121t28 -151.5t-28 -151.5t-81 -121t-132 -81t-179 -29.5h-486v-553q0 -27 -16 -44t-45 -17q-27 0 -44 17t-17 44zM317 709h510q129 0 201 77.5t72 194.5t-72 194.5t-201 77.5h-510v-544z" />
<glyph unicode="Q" horiz-adv-x="1585" d="M106 685q0 141 50 268q51 128 141 224.5t217 154t280.5 57.5t279.5 -57.5t216 -154t139.5 -224.5t49.5 -271q0 -180 -75 -331.5t-210 -250.5l147 -252q8 -16 9 -26q0 -23 -16.5 -37t-39.5 -14q-18 0 -28.5 8t-18.5 20l-145 246q-139 -70 -307 -70q-154 0 -281 56.5 t-217 154t-140 225.5q-51 129 -51 274zM229 682q0 -117 39 -225.5t112 -191.5t177.5 -132t237.5 -49q72 0 134 14.5t118 40.5l-115 197q-4 10 -8 17t-4 18q0 25 16 38t39 13q31 0 45 -27l117 -198q106 86 162.5 213t56.5 272q0 117 -38 225.5t-110.5 191.5t-177 132 t-235.5 49q-133 0 -237.5 -49t-177.5 -132t-112 -191.5t-39 -225.5z" />
<glyph unicode="R" horiz-adv-x="1402" d="M195 45v1258q0 27 18 44t43 17h588q100 0 179 -28.5t132 -80t81 -120t28 -150.5q0 -141 -79 -240.5t-231 -128.5l267 -544q8 -16 8 -29q0 -23 -16.5 -41t-43.5 -18q-23 0 -35 9t-22 25l-289 588h-506v-561q0 -27 -16 -44t-45 -17q-27 0 -44 17t-17 44zM317 717h551 q129 0 201 75.5t72 192.5t-72 192.5t-201 75.5h-551v-536z" />
<glyph unicode="S" horiz-adv-x="1298" d="M133 197q0 23 14.5 36t36.5 13q14 0 26.5 -5t22.5 -14q78 -53 186.5 -99t256.5 -46q186 0 286.5 68.5t100.5 183.5q0 59 -27.5 103t-79 78t-124 61.5t-162.5 54.5q-152 45 -250 93t-155.5 98t-80 104.5t-22.5 113.5q0 88 41 154t110.5 109t161.5 64.5t195 21.5 q248 0 440 -132q29 -18 29 -43q0 -18 -13.5 -35.5t-42.5 -17.5q-16 0 -32 10q-96 59 -193.5 85t-189.5 26q-80 0 -149.5 -14.5t-122 -43t-82 -74.5t-29.5 -110q0 -53 21.5 -93t68.5 -74.5t120.5 -66.5t176.5 -65q121 -41 216 -76.5t161.5 -79.5t101.5 -102.5t35 -144.5 q0 -166 -135.5 -264.5t-372.5 -98.5q-154 0 -287 48.5t-229 121.5q-29 25 -29 52z" />
<glyph unicode="T" horiz-adv-x="1191" d="M37 1308.5q0 22.5 16.5 39t38.5 16.5h1008q23 0 39 -16.5t16 -39t-16.5 -39t-38.5 -16.5h-443v-1208q0 -27 -17 -44t-44 -17t-44 17t-17 44v1208h-443q-23 0 -39 16.5t-16 39z" />
<glyph unicode="U" horiz-adv-x="1511" d="M180 537v782q0 27 17.5 44t44 17t44 -17t17.5 -44v-791q0 -100 26.5 -182t82 -140.5t140.5 -90t203.5 -31.5t203.5 31.5t140.5 90t82 140.5t26.5 182v791q0 27 17.5 44t44 17t44 -17t17.5 -44v-782q0 -129 -40 -232.5t-114.5 -176.5t-181 -113t-239.5 -40t-239.5 40 t-181.5 113t-115 176.5t-40 232.5z" />
<glyph unicode="V" horiz-adv-x="1249" d="M20 1327q0 23 17.5 38t40.5 15q37 0 51 -32l496 -1168l495 1168q14 32 49 32h2q23 0 40.5 -15t17.5 -38q0 -14 -6 -29l-543 -1275q-8 -16 -20.5 -27.5t-35 -11.5t-34.5 11t-21 28l-542 1275q-7 15 -7 29z" />
<glyph unicode="W" horiz-adv-x="1933" d="M41 1325q0 27 17.5 41t39.5 14q41 0 54 -43l374 -1130l385 1130q12 43 55.5 43t55.5 -43l385 -1130l375 1130q12 43 53 43q23 0 40 -14t17 -41q0 -8 -4 -25l-426 -1277q-6 -16 -18 -27.5t-37 -11.5q-43 0 -55 39l-385 1134l-385 -1134q-12 -39 -56 -39q-25 0 -37 11 t-18 28l-426 1277q-4 17 -4 25z" />
<glyph unicode="X" horiz-adv-x="1310" d="M102 35q0 18 13 37l473 614l-467 606q-12 18 -12 35q0 23 16 38t39 15q18 0 27.5 -6t19.5 -16l444 -576l445 576q10 10 19 16t28 6q23 0 39 -15t16 -38q0 -16 -12 -35l-467 -606l473 -614q12 -18 12 -37q0 -25 -14 -38t-37 -13q-20 0 -31.5 6t-19.5 16l-451 584 l-450 -584q-8 -10 -19.5 -16t-31.5 -6q-23 0 -37.5 13t-14.5 38z" />
<glyph unicode="Y" horiz-adv-x="1130" d="M10 1325q0 27 16.5 41t39.5 14q33 0 53 -28l446 -639l447 639q19 28 51 28h2q23 0 39 -14t16 -41q0 -16 -12 -35l-481 -692v-553q0 -27 -17.5 -44t-44 -17t-44 17t-17.5 44v553l-481 692q-13 19 -13 35z" />
<glyph unicode="Z" horiz-adv-x="1304" d="M164 53q0 16 14 39l821 1165h-770q-23 0 -39 15.5t-16 38t16.5 38t38.5 15.5h875q25 0 41 -13.5t16 -39.5q0 -20 -16 -41l-815 -1164h792q23 0 39.5 -15t16.5 -37.5t-16.5 -38t-39.5 -15.5h-899q-25 0 -42 14t-17 39z" />
<glyph unicode="[" horiz-adv-x="700" d="M215 -246v1589q0 29 17.5 45.5t39.5 16.5h263q23 0 38 -15.5t15 -38t-15.5 -38t-37.5 -15.5h-197v-1497h197q23 0 38 -15t15 -37.5t-15.5 -38t-37.5 -15.5h-263q-29 0 -43 17t-14 42z" />
<glyph unicode="\" horiz-adv-x="921" d="M133 1432q0 27 17.5 40t35.5 13q41 0 56 -43l542 -1587q4 -16 4 -25q0 -18 -14 -33.5t-39 -15.5q-23 0 -35 10t-20 31l-543 1585q-4 13 -4 25z" />
<glyph unicode="]" horiz-adv-x="700" d="M113 -251.5q0 22.5 15 37.5t38 15h196v1497h-196q-23 0 -38 15.5t-15 38t15 38t38 15.5h262q23 0 40 -16.5t17 -45.5v-1589q0 -25 -14 -42t-43 -17h-262q-23 0 -38 15.5t-15 38z" />
<glyph unicode="^" horiz-adv-x="958" d="M113 772q0 12 8 29l311 549q18 31 47 30.5t47 -30.5l312 -549q8 -16 8 -29q0 -23 -13.5 -36t-39.5 -13q-16 0 -26.5 8t-18.5 21l-269 479l-268 -479q-8 -12 -18.5 -20.5t-26.5 -8.5q-27 0 -40 13t-13 36z" />
<glyph unicode="_" horiz-adv-x="897" d="M-2 -27h901v-63h-901v63z" />
<glyph unicode="`" horiz-adv-x="673" d="M205 1315q0 23 15.5 35t35.5 12q29 0 43 -23l147 -209q12 -18 13 -32q0 -20 -14.5 -34.5t-35 -14.5t-30.5 9t-21 23l-141 199q-4 6 -8 14.5t-4 20.5z" />
<glyph unicode="a" horiz-adv-x="1056" d="M117 244q0 61 26.5 111.5t75.5 86t119 55t156 19.5q100 0 175.5 -35t110.5 -75v120q0 147 -72.5 215t-224.5 68q-74 0 -133 -14.5t-119 -38.5q-4 -2 -11 -4t-17 -2q-53 0 -53 51q0 16 9 27.5t21 17.5q59 31 134 49t180 18q195 0 302 -99t107 -286v-483q0 -25 -16.5 -43 t-45 -18t-45 18t-16.5 43v45q-53 -59 -132 -87t-173 -28q-166 0 -262 76t-96 193zM240 244q0 -84 69.5 -131t184.5 -47q55 0 107 12t92 35.5t63.5 56.5t23.5 74q0 43 -23.5 75.5t-63.5 56t-90 36t-101 12.5q-121 0 -191.5 -49t-70.5 -131z" />
<glyph unicode="b" horiz-adv-x="1208" d="M164 45v1274q0 27 17.5 44t44 17t44 -17t17.5 -44v-594q59 88 151 138t215 50q94 0 176 -34.5t142.5 -97t95.5 -148.5t35 -188.5t-35 -188.5t-95.5 -148.5t-142 -97.5t-176.5 -35q-123 0 -215 50.5t-151 138.5v-119q0 -27 -17.5 -44t-44 -17t-44 17t-17.5 44zM287 444.5 q0 -73.5 24.5 -140t70.5 -117t109.5 -79t143.5 -28.5q76 0 139.5 26.5t109.5 75.5t70.5 116t24.5 146.5t-24.5 146t-70.5 116t-109.5 76t-139.5 26.5q-80 0 -143.5 -28.5t-109.5 -79t-70.5 -117t-24.5 -140z" />
<glyph unicode="c" horiz-adv-x="1038" d="M109 444.5q0 100.5 35.5 186.5t98 148.5t148.5 98t187 35.5q127 0 220 -51t140 -121q12 -18 12 -36q0 -23 -17.5 -37.5t-41.5 -14.5q-16 0 -25.5 7.5t-17.5 17.5q-55 66 -116.5 97.5t-153.5 31.5q-76 0 -139.5 -28.5t-109.5 -78t-72 -115t-26 -141t26 -141t72 -115 t109.5 -78t139.5 -28.5q92 0 153.5 31.5t116.5 97.5q8 10 17 17.5t26 7.5q25 0 42 -14.5t17 -37.5q0 -18 -12 -37q-47 -70 -140 -121t-220 -51q-100 0 -186.5 36t-149 98.5t-98 148.5t-35.5 186.5z" />
<glyph unicode="d" horiz-adv-x="1208" d="M106 444.5q0 102.5 35 188.5t95.5 148.5t142.5 97t176 34.5q123 0 215 -50t152 -138v594q0 27 17 44t44 17t44 -17t17 -44v-1274q0 -27 -17 -44t-44 -17t-44 17t-17 44v119q-59 -88 -151.5 -138.5t-215.5 -50.5q-94 0 -176 35t-142.5 97.5t-95.5 148.5t-35 188.5z M229 444.5q0 -79.5 25 -146.5t71 -116t108.5 -75.5t139.5 -26.5q80 0 143.5 28.5t109.5 79t71 117t25 140t-25 140t-71 117t-109.5 79t-143.5 28.5q-78 0 -140 -26.5t-108 -76t-71 -116t-25 -146z" />
<glyph unicode="e" horiz-adv-x="1101" d="M106 444q0 94 34 179.5t93.5 150t143.5 102t186 37.5q94 0 173 -34.5t136.5 -96t89 -145.5t31.5 -182q0 -23 -15 -37.5t-36 -14.5h-711q2 -61 26 -119.5t68 -103.5t107.5 -72.5t142.5 -27.5q170 0 279 129q8 10 19.5 18.5t27.5 8.5q25 0 38 -15.5t13 -36.5q0 -18 -12 -37 q-53 -72 -147.5 -122t-217.5 -50q-111 0 -197.5 39t-147 103.5t-92.5 149.5t-32 177zM236 506h645q-6 63 -32 119.5t-68 97.5t-97 64.5t-121 23.5q-68 0 -125 -24.5t-100 -65.5t-69.5 -96.5t-32.5 -118.5z" />
<glyph unicode="f" horiz-adv-x="657" d="M25 837.5q0 22.5 14 37t37 14.5h143v127q0 168 77 258t251 90h43q23 0 37 -14.5t14 -37t-14.5 -36.5t-36.5 -14h-37q-106 0 -158.5 -53.5t-52.5 -190.5v-129h233q20 0 36 -14.5t16 -37t-15.5 -37t-36.5 -14.5h-233v-741q0 -27 -17.5 -44t-44 -17t-44 17t-17.5 44v741 h-143q-23 0 -37 14.5t-14 37z" />
<glyph unicode="g" horiz-adv-x="1208" d="M106 458.5q0 104.5 36 188.5t97.5 143.5t144.5 91t177 31.5q68 0 125 -17t103.5 -44t79 -60.5t53.5 -66.5v119q0 27 17 44t44 17t44 -17.5t17 -43.5v-772q0 -104 -27.5 -190.5t-85 -149t-146.5 -97t-212 -34.5q-121 0 -213 27.5t-151 64.5q-14 8 -25.5 20.5t-11.5 32.5 q0 23 13.5 34t33.5 11q14 0 27.5 -5t25.5 -11q63 -35 137 -54.5t164 -19.5q94 0 161 27.5t109 76t60.5 115t18.5 143.5v130q-53 -88 -152.5 -138.5t-208.5 -50.5q-94 0 -177 32t-144.5 91t-97.5 143t-36 188.5zM227 459q0 -80 26 -145.5t71 -111.5t108.5 -72t140.5 -26 q74 0 137.5 29t110.5 77t74 112.5t27 136t-27 136t-74 113t-110.5 77t-137.5 28.5q-78 0 -141 -25.5t-108 -71.5t-71 -111.5t-26 -145.5z" />
<glyph unicode="h" horiz-adv-x="1157" d="M164 45v1274q0 27 17.5 44t44 17t44 -17t17.5 -44v-582q49 86 135 131t199 45q88 0 159.5 -30.5t120.5 -86t76 -131t27 -163.5v-457q0 -27 -17.5 -44t-44.5 -17t-44 17t-17 44v455q0 139 -72 220t-215 81q-66 0 -122 -22.5t-97 -65.5t-64.5 -103.5t-23.5 -136.5v-428 q0 -27 -17.5 -44t-44 -17t-44 17t-17.5 44z" />
<glyph unicode="i" horiz-adv-x="450" d="M147 1159q0 33 23 55.5t55.5 22.5t55 -22.5t22.5 -55.5t-22.5 -55.5t-55 -22.5t-55.5 22.5t-23 55.5zM164 45v799q0 27 17.5 44t44 17t44 -17.5t17.5 -43.5v-799q0 -27 -17.5 -44t-44 -17t-44 17t-17.5 44z" />
<glyph unicode="j" horiz-adv-x="450" d="M-88 -348.5q0 22.5 14.5 37t36.5 14.5h25q57 0 92 12.5t53.5 38t24.5 65.5t6 93v932q0 27 17.5 44t44 17t44 -17.5t17.5 -43.5v-940q0 -154 -62.5 -228.5t-226.5 -74.5h-35q-23 0 -37 14t-14 36.5zM147 1159q0 33 23 55.5t55.5 22.5t55 -22.5t22.5 -55.5t-22.5 -55.5 t-55 -22.5t-55.5 22.5t-23 55.5z" />
<glyph unicode="k" horiz-adv-x="983" d="M164 45v1274q0 27 17.5 44t44 17t44 -17t17.5 -44v-827l499 397q20 16 41 16q25 0 40.5 -17.5t15.5 -37.5q0 -25 -29 -47l-342 -271l373 -454q16 -23 16 -39q0 -23 -17.5 -39t-43.5 -16q-23 0 -43 24l-373 455l-137 -111v-307q0 -27 -17.5 -44t-44 -17t-44 17t-17.5 44z " />
<glyph unicode="l" horiz-adv-x="450" d="M164 45v1274q0 27 17.5 44t44 17t44 -17t17.5 -44v-1274q0 -27 -17.5 -44t-44 -17t-44 17t-17.5 44z" />
<glyph unicode="m" horiz-adv-x="1849" d="M164 45v799q0 27 17.5 44t44 17t44 -17.5t17.5 -43.5v-107q49 86 131 131t194 45q123 0 211 -58t129 -148q66 113 156 159.5t209 46.5q88 0 158.5 -30.5t120 -86t75 -131t25.5 -163.5v-457q0 -27 -17.5 -44t-44 -17t-44 17t-17.5 44v455q0 139 -69.5 220t-213.5 81 q-131 0 -215 -88t-84 -240v-428q0 -27 -17.5 -44t-44 -17t-44 17t-17.5 44v455q0 139 -69.5 220t-212.5 81q-131 0 -215 -88t-84 -240v-428q0 -27 -17.5 -44t-44 -17t-44 17t-17.5 44z" />
<glyph unicode="n" horiz-adv-x="1157" d="M164 45v799q0 27 17.5 44t44 17t44 -17.5t17.5 -43.5v-107q49 86 135 131t199 45q88 0 159.5 -30.5t120.5 -86t76 -131t27 -163.5v-457q0 -27 -17.5 -44t-44.5 -17t-44 17t-17 44v455q0 139 -72 220t-215 81q-66 0 -122 -22.5t-97 -65.5t-64.5 -103.5t-23.5 -136.5v-428 q0 -27 -17.5 -44t-44 -17t-44 17t-17.5 44z" />
<glyph unicode="o" horiz-adv-x="1146" d="M106 444.5q0 98.5 35 183.5t96.5 148.5t147.5 100t188.5 36.5t188.5 -36.5t147.5 -100t96 -148.5t34.5 -183.5t-34.5 -183.5t-96 -148.5t-147.5 -100.5t-188.5 -37t-188.5 37t-147.5 100.5t-96.5 148.5t-35 183.5zM229 444.5q0 -77.5 27 -144.5t73 -115t109.5 -75.5 t135 -27.5t135 27.5t109.5 75.5t73 115t27 144.5t-27 144t-73 115t-109.5 76t-135 27.5t-135 -27.5t-109.5 -76t-73 -115t-27 -144z" />
<glyph unicode="p" horiz-adv-x="1208" d="M164 -338v1182q0 27 17.5 44t44 17t44 -17.5t17.5 -43.5v-119q59 88 151 138t215 50q94 0 176 -34.5t142.5 -97t95.5 -148.5t35 -188.5t-35 -188.5t-95.5 -148.5t-142 -97.5t-176.5 -35q-123 0 -215 50.5t-151 138.5v-502q0 -27 -17.5 -44t-44 -17t-44 17t-17.5 44z M287 444.5q0 -73.5 24.5 -140t70.5 -117t109.5 -79t143.5 -28.5q76 0 139.5 26.5t109.5 75.5t70.5 116t24.5 146.5t-24.5 146t-70.5 116t-109.5 76t-139.5 26.5q-80 0 -143.5 -28.5t-109.5 -79t-70.5 -117t-24.5 -140z" />
<glyph unicode="q" horiz-adv-x="1208" d="M106 444.5q0 102.5 35 188.5t95.5 148.5t142.5 97t176 34.5q123 0 215 -50t152 -138v119q0 27 17 44t44 17t44 -17.5t17 -43.5v-1182q0 -27 -17 -44t-44 -17t-44 17t-17 44v502q-59 -88 -151.5 -138.5t-215.5 -50.5q-94 0 -176 35t-142.5 97.5t-95.5 148.5t-35 188.5z M229 444.5q0 -79.5 25 -146.5t71 -116t108.5 -75.5t139.5 -26.5q80 0 143.5 28.5t109.5 79t71 117t25 140t-25 140t-71 117t-109.5 79t-143.5 28.5q-78 0 -140 -26.5t-108 -76t-71 -116t-25 -146z" />
<glyph unicode="r" horiz-adv-x="673" d="M164 45v799q0 29 17.5 45t43.5 16q29 0 45.5 -17.5t16.5 -43.5v-144q29 88 106.5 146.5t188.5 58.5q27 0 44 -14t17 -39q0 -29 -18.5 -42t-42.5 -13q-66 0 -120 -30t-93 -83t-60.5 -126t-21.5 -159v-354q0 -25 -17.5 -43t-44.5 -18q-25 0 -43 18t-18 43z" />
<glyph unicode="s" horiz-adv-x="958" d="M133 139q0 20 13.5 32.5t33.5 12.5q16 0 26.5 -5t20.5 -13q59 -47 132 -71.5t149 -24.5q109 0 169 40t60 107q0 39 -18.5 64.5t-50 45t-74.5 32.5l-92 28q-102 29 -171 59.5t-111 65.5t-59.5 75t-17.5 89q0 121 96.5 179t256.5 58q70 0 140.5 -18t135.5 -53 q25 -12 40 -26.5t15 -35t-13 -34t-38 -13.5q-12 0 -23.5 5t-25.5 14q-49 27 -110.5 44t-122.5 17q-100 0 -166 -30.5t-66 -102.5q0 -31 12.5 -55.5t41 -46t76.5 -41t120 -39.5q76 -23 139.5 -45.5t108.5 -53t70.5 -72.5t25.5 -104q0 -109 -91 -178.5t-263 -69.5 q-102 0 -190.5 31t-153.5 86q-25 18 -25 47z" />
<glyph unicode="t" horiz-adv-x="661" d="M37 837.5q0 22.5 14.5 37t36.5 14.5h182v287q0 27 17.5 44t44 17t44 -17.5t17.5 -43.5v-287h207q20 0 35.5 -14.5t15.5 -37t-15 -37t-36 -14.5h-207v-741q0 -27 -17.5 -44t-44 -17t-44 17t-17.5 44v741h-182q-23 0 -37 14.5t-14 37z" />
<glyph unicode="u" horiz-adv-x="1157" d="M154 387v457q0 27 17 44t44 17t44 -17.5t17 -43.5v-455q0 -139 72 -220t215 -81q66 0 122 22.5t97 65.5t64.5 103.5t23.5 136.5v428q0 27 17.5 44t44 17t44 -17.5t17.5 -43.5v-799q0 -27 -17.5 -44t-44 -17t-44 17t-17.5 44v107q-49 -86 -135 -131.5t-198 -45.5 q-90 0 -161 31t-120 86t-75.5 130t-26.5 165z" />
<glyph unicode="v" horiz-adv-x="897" d="M31 850q0 23 15 39t42 16q23 0 34 -9t19 -28l308 -694l307 694q14 37 53 37q27 0 42 -16.5t15 -38.5q0 -14 -8 -31l-358 -801q-8 -16 -18.5 -25t-33 -9t-32.5 9t-19 25l-358 801q-8 17 -8 31z" />
<glyph unicode="w" horiz-adv-x="1318" d="M37 852q0 25 16.5 39t40.5 14q23 0 34 -11t17 -30l224 -682l239 684q6 16 17.5 27.5t34 11.5t34 -11t17.5 -28l239 -684l224 682q6 18 17 29.5t34 11.5q25 0 41 -14t16 -39q0 -8 -4 -25l-270 -807q-14 -36 -54 -36h-2q-43 0 -55 39l-238 675l-237 -675q-12 -39 -55 -39 q-41 0 -56 36l-270 807q-4 17 -4 25z" />
<glyph unicode="x" horiz-adv-x="958" d="M92 37q0 18 12 37l306 372l-299 369l-11 18q-4 7 -4 19q0 23 15.5 38t42 15t43.5 -22l282 -355l283 355q16 23 41 23h1q26 0 42 -16t16 -38q0 -12 -4 -19l-10 -18l-299 -369l305 -372q12 -18 12 -37q0 -23 -16 -38t-39 -15q-27 0 -43 20l-289 361l-289 -361 q-16 -20 -43 -20q-23 0 -39 15t-16 38z" />
<glyph unicode="y" horiz-adv-x="886" d="M27 850q0 23 15 39t42 16q23 0 34 -10t19 -29l309 -729l304 733q6 16 17 25.5t34 9.5q27 0 41 -16.5t14 -38.5q0 -12 -6 -27l-113 -276l-99 -240l-89 -213q-59 -143 -156.5 -272t-234.5 -211q-16 -10 -37 -10q-25 0 -39 14t-14 37q0 29 36 51q84 57 151 127t128 176 l-348 813q-8 21 -8 31z" />
<glyph unicode="z" horiz-adv-x="956" d="M123 49q0 12 4 20.5t10 18.5l559 703h-520q-20 0 -35.5 13t-15.5 35.5t15.5 36t35.5 13.5h631q23 0 37 -13.5t14 -35.5q0 -18 -12 -37l-561 -705h528q23 0 37 -13t14 -35.5t-14 -36t-37 -13.5h-639q-20 0 -35.5 14.5t-15.5 34.5z" />
<glyph unicode="{" horiz-adv-x="710" d="M92 542.5q0 22.5 16.5 38t38.5 15.5h17q80 0 112.5 36t32.5 109v476q0 88 42 138t138 50h89q20 0 35.5 -15.5t15.5 -38t-15.5 -38t-35.5 -15.5h-70q-41 0 -58.5 -17t-17.5 -62v-455q0 -98 -37 -154.5t-137 -66.5q100 -10 137 -66.5t37 -154.5v-455q0 -45 17.5 -62.5 t58.5 -17.5h70q20 0 35.5 -15.5t15.5 -38t-15.5 -37.5t-35.5 -15h-89q-96 0 -138 50t-42 138v475q0 74 -32.5 109.5t-112.5 35.5h-17q-23 0 -39 15.5t-16 38z" />
<glyph unicode="|" horiz-adv-x="569" d="M236 -356v1812q0 20 13 34.5t35.5 14.5t36 -14t13.5 -35v-1812q0 -20 -13.5 -35t-36 -15t-35.5 15t-13 35z" />
<glyph unicode="}" horiz-adv-x="710" d="M82 -266.5q0 22.5 15.5 38t35.5 15.5h70q41 0 58.5 17.5t17.5 62.5v455q0 98 36.5 154t137.5 67q-100 10 -137 66.5t-37 154.5v455q0 45 -17.5 62t-58.5 17h-70q-20 0 -35.5 15.5t-15.5 38t15.5 38t35.5 15.5h88q96 0 138 -50t42 -138v-476q0 -74 33 -109.5t113 -35.5h16 q23 0 39 -15.5t16 -38t-16 -38t-39 -15.5h-16q-80 0 -113 -35.5t-33 -109.5v-475q0 -88 -42 -138t-138 -50h-88q-20 0 -35.5 15t-15.5 37.5z" />
<glyph unicode="~" horiz-adv-x="1040" d="M123 469q0 14 8 29q39 66 94.5 109.5t134.5 43.5q45 0 83 -13t104 -48l90 -47q33 -16 68 -17q47 0 76.5 24.5t70.5 76.5q8 10 16.5 17t24.5 7q20 0 32.5 -13t12.5 -30q0 -18 -8 -28q-43 -66 -98.5 -110t-133.5 -44q-47 0 -86 18l-102 50l-90 43q-31 14 -62 14 q-37 0 -68.5 -18.5t-80.5 -81.5q-8 -10 -16.5 -17.5t-24.5 -7.5q-20 0 -32.5 13.5t-12.5 29.5z" />
<glyph unicode="&#xa1;" horiz-adv-x="573" d="M201 827.5q0 34.5 25.5 60t60.5 25.5t60.5 -25.5t25.5 -60t-25.5 -60.5t-60.5 -26t-60.5 26t-25.5 60.5zM225 156l29 399q4 37 32.5 37t32.5 -37l29 -399v-494q0 -25 -16.5 -43t-45 -18t-45 18.5t-16.5 42.5v494z" />
<glyph unicode="&#xa2;" horiz-adv-x="1159" d="M164 682q0 92 30.5 173t84 142.5t128 100.5t164.5 49v188q0 20 14.5 37t43 17t43 -16.5t14.5 -37.5v-188q106 -10 186 -58.5t121 -109.5q12 -18 13 -37q0 -23 -17.5 -37t-42.5 -14q-16 0 -25.5 7t-17.5 17q-55 66 -116.5 97.5t-153.5 31.5q-76 0 -139.5 -28.5 t-109.5 -77.5t-71.5 -114.5t-25.5 -141.5t25.5 -141.5t71.5 -114.5t109.5 -78t139.5 -29q92 0 153.5 32t116.5 98q8 10 17.5 17t25.5 7q25 0 42.5 -14.5t17.5 -36.5q0 -18 -13 -37q-41 -61 -120.5 -110.5t-186.5 -59.5v-186q0 -20 -14.5 -37t-43 -17t-43 16.5t-14.5 37.5 v186q-90 10 -164.5 50t-128 101.5t-84 142.5t-30.5 173z" />
<glyph unicode="&#xa3;" horiz-adv-x="1306" d="M123 53.5q0 26.5 18.5 39.5t40.5 13h303v547h-264q-23 0 -41 12.5t-18 41t18.5 41t40.5 12.5h264v194q0 217 110 326t308 109q66 0 120 -7.5t114 -31.5q18 -8 32.5 -20.5t14.5 -35.5q0 -20 -11.5 -35.5t-39.5 -15.5q-14 0 -29 6q-45 16 -95.5 22.5t-101.5 6.5 q-160 0 -229.5 -83t-69.5 -243v-192h457q23 0 40 -13.5t17 -40t-17.5 -40t-39.5 -13.5h-457v-547h520q23 0 39.5 -15t16.5 -38q0 -25 -16.5 -39t-39.5 -14h-946q-23 0 -41 13.5t-18 40z" />
<glyph unicode="&#xa4;" horiz-adv-x="1343" d="M154 201q0 16 14 35l154 151q-104 121 -105 295q0 84 26.5 158.5t75.5 134.5l-151 151q-14 14 -14 33q0 20 14 34.5t35 14.5q16 0 33 -16l151 -152q57 45 129 71t156 26t154.5 -26t127.5 -73l152 154q20 16 35 16q20 0 34.5 -14t14.5 -35q0 -18 -14 -33l-154 -151 q49 -59 76.5 -134t27.5 -159q0 -86 -28.5 -161t-77.5 -134l156 -151q14 -14 14 -35q0 -18 -14.5 -32.5t-34.5 -14.5q-18 0 -35 14l-154 156q-55 -47 -126.5 -72t-153.5 -25q-168 0 -283 97l-153 -156q-14 -14 -33 -14q-20 0 -34.5 14.5t-14.5 32.5zM332 682 q0 -74 25.5 -137.5t70.5 -111.5t107.5 -75.5t136 -27.5t135 27.5t106.5 75.5t71 111.5t26 137.5t-26 137.5t-71 111.5t-106.5 75.5t-135 27.5t-136 -27.5t-107.5 -75.5t-70.5 -111.5t-25.5 -137.5z" />
<glyph unicode="&#xa5;" horiz-adv-x="1191" d="M102 1325q0 25 16.5 40t39.5 15q33 0 51 -30l387 -641l387 641q18 31 51 30q23 0 39.5 -15t16.5 -40q0 -16 -13 -35l-303 -499h225q23 0 38.5 -12.5t15.5 -35t-15.5 -35t-38.5 -12.5h-282l-60 -98v-135h342q23 0 38.5 -12.5t15.5 -35t-15.5 -34.5t-38.5 -12h-342v-324 q0 -27 -17 -44t-44 -17t-44 17t-17 44v324h-342q-23 0 -38.5 12t-15.5 34.5t15.5 35t38.5 12.5h342v135l-60 98h-282q-23 0 -38.5 12.5t-15.5 35t15.5 35t38.5 12.5h225l-303 499q-13 19 -13 35z" />
<glyph unicode="&#xa6;" horiz-adv-x="569" d="M236 -356v727q0 20 13 34.5t35.5 14.5t36 -14.5t13.5 -34.5v-727q0 -20 -13.5 -35t-36 -15t-35.5 15t-13 35zM236 729v727q0 20 13 34.5t35.5 14.5t36 -14t13.5 -35v-727q0 -20 -13.5 -34.5t-36 -14.5t-35.5 14.5t-13 34.5z" />
<glyph unicode="&#xa7;" horiz-adv-x="1263" d="M174 -29q0 20 13.5 32.5t35.5 12.5q29 0 56 -20q70 -55 165 -88t201 -33q125 0 204 48t79 132q0 45 -23.5 79t-67.5 62.5t-109 55.5l-144 57q-104 41 -180 78t-125.5 77t-74 86t-24.5 105q0 94 53.5 154.5t135.5 101.5q-63 51 -87 97.5t-24 111.5q0 68 29.5 118t85 84 t133.5 50.5t172 16.5q90 0 180 -20.5t162 -61.5q37 -20 37 -52q0 -20 -14.5 -35.5t-36.5 -15.5q-16 0 -28 6l-26 15q-59 31 -131.5 47t-148.5 16q-59 0 -111.5 -8t-92.5 -28.5t-63.5 -52.5t-23.5 -77q0 -49 23.5 -85t66.5 -64.5t102.5 -53t131.5 -51.5q104 -39 178.5 -73.5 t123 -73.5t71 -86t22.5 -111q0 -162 -166 -260q59 -41 88 -89t29 -118q0 -59 -29 -110t-83 -89t-130 -60.5t-170 -22.5q-59 0 -119.5 11t-118 29.5t-108.5 45t-90 57.5q-29 22 -29 53zM299 664q0 -45 21.5 -78t63.5 -61.5t102.5 -56.5t138.5 -58l63 -26l51 -22l50 -20 l55 -23q61 33 99 86.5t38 106.5q0 45 -19.5 79t-59.5 62.5t-103.5 57t-149.5 63.5q-53 23 -101 40t-89 40q-61 -29 -110.5 -71.5t-49.5 -118.5z" />
<glyph unicode="&#xa8;" horiz-adv-x="749" d="M123 1157q0 35 23.5 58.5t58.5 23.5t58.5 -23.5t23.5 -58.5t-23.5 -58.5t-58.5 -23.5t-58.5 23.5t-23.5 58.5zM463 1157q0 35 23.5 58.5t58.5 23.5t58.5 -23.5t23.5 -58.5t-23.5 -58.5t-58.5 -23.5t-58.5 23.5t-23.5 58.5z" />
<glyph unicode="&#xa9;" horiz-adv-x="1650" d="M119 682q0 145 53 274t146.5 225.5t223.5 152t283.5 55.5t283.5 -55.5t223 -152t146.5 -225.5t53.5 -274t-53.5 -274t-146.5 -225.5t-223 -152t-283.5 -55.5t-283.5 55.5t-223.5 152t-146.5 225.5t-53 274zM217 682q0 -127 43 -238.5t123 -196.5t192.5 -134.5t250 -49.5 t250 49.5t192.5 134.5t123 196.5t43 238.5q0 125 -43 237.5t-123 197.5t-192.5 134t-250 49t-250 -49t-192.5 -134t-123 -197.5t-43 -237.5zM508 682q0 74 23.5 137.5t68.5 110.5t109.5 73.5t144.5 26.5q86 0 154.5 -37t111.5 -92q12 -16 13 -35q0 -23 -15.5 -35t-34.5 -12 q-27 0 -45 23q-39 47 -82 69.5t-102 22.5q-115 0 -177.5 -74t-62.5 -178t62.5 -178t177.5 -74q59 0 102 22.5t82 69.5q18 23 45 23q18 0 34 -12.5t16 -34.5q0 -20 -13 -35q-43 -55 -111.5 -92t-154.5 -37q-80 0 -144.5 26.5t-109.5 73.5t-68.5 110.5t-23.5 137.5z" />
<glyph unicode="&#xaa;" horiz-adv-x="849" d="M154 938q0 86 70.5 131t178.5 45q59 0 111.5 -17.5t87.5 -47.5v84q0 90 -48 131t-140 41q-53 0 -94 -10.5t-78 -26.5q-8 -4 -19 -4q-41 0 -41 39q0 18 14.5 29t34.5 22q41 18 93.5 26.5t95.5 8.5q135 0 205.5 -67t70.5 -194v-311q0 -23 -12 -36t-34.5 -13t-34 13.5 t-11.5 35.5v19q-29 -33 -83 -53.5t-120 -20.5q-106 0 -176.5 45t-70.5 131zM248 938q0 -53 46 -80t116 -27q76 0 134 29t58 78q0 27 -16.5 46.5t-43 32.5t-58 20t-64.5 7t-63.5 -6t-55.5 -18t-39 -32.5t-14 -49.5z" />
<glyph unicode="&#xab;" horiz-adv-x="1165" d="M123 436.5q0 20.5 16 36.5l324 311q10 8 18 12.5t21 4.5q23 0 39 -14.5t16 -34.5q0 -14 -6 -24.5t-14 -18.5l-289 -273l289 -272q8 -8 14 -18.5t6 -24.5q0 -20 -16.5 -34.5t-38.5 -14.5q-12 0 -20.5 4t-18.5 12l-324 311q-16 17 -16 37.5zM588 436.5q0 20.5 16 36.5 l324 311q10 8 18 12.5t21 4.5q23 0 39 -14.5t16 -34.5q0 -14 -6 -24.5t-15 -18.5l-288 -273l288 -272q8 -8 14.5 -18.5t6.5 -24.5q0 -20 -16.5 -34.5t-38.5 -14.5q-12 0 -20.5 4t-18.5 12l-324 311q-16 17 -16 37.5z" />
<glyph unicode="&#xac;" horiz-adv-x="1280" d="M154 616.5q0 24.5 17 40t42 15.5h803q25 0 42 -15.5t17 -40.5v-401q0 -25 -17.5 -42t-42 -17t-42 17t-17.5 42v346h-743q-25 0 -42 15.5t-17 40z" />
<glyph unicode="&#xad;" horiz-adv-x="897" d="M143 507.5q0 24.5 15.5 38t38.5 13.5h503q23 0 38.5 -13.5t15.5 -38t-15.5 -37.5t-38.5 -13h-503q-23 0 -38.5 13t-15.5 37.5z" />
<glyph unicode="&#xae;" horiz-adv-x="851" d="M82 1048.5q0 71.5 25.5 133t71.5 107.5t108.5 73t138.5 27t138.5 -27t108.5 -73t71.5 -107.5t25.5 -133t-25.5 -133t-71.5 -107.5t-108.5 -72.5t-138.5 -26.5t-138.5 26.5t-108.5 72.5t-71.5 107.5t-25.5 133zM143 1048.5q0 -57.5 19.5 -108.5t55.5 -90t88 -61.5 t120 -22.5t120 22.5t88 61.5t55.5 90t19.5 108.5t-19.5 108.5t-55.5 90t-88 61.5t-120 22.5t-120 -22.5t-88 -61.5t-55.5 -90t-19.5 -108.5zM319 899v305q0 12 9.5 21.5t21.5 9.5h88q61 0 94 -30.5t33 -80.5q0 -76 -63 -102l65 -104q4 -8 4 -17q0 -10 -9 -18.5t-21 -8.5 q-18 0 -29 19l-70 119h-63v-113q0 -10 -8.5 -18.5t-20.5 -8.5t-21.5 8.5t-9.5 18.5zM379 1067h65q29 0 44.5 17.5t15.5 39.5q0 25 -15.5 40.5t-44.5 15.5h-65v-113z" />
<glyph unicode="&#xaf;" horiz-adv-x="796" d="M123 1146.5q0 20.5 14.5 33t30.5 12.5h461q16 0 30.5 -12.5t14.5 -33t-14.5 -32.5t-30.5 -12h-461q-16 0 -30.5 12t-14.5 32.5z" />
<glyph unicode="&#xb0;" horiz-adv-x="622" d="M82 1157q0 94 60.5 163t169 69t169 -69t60.5 -163t-60.5 -161.5t-169 -67.5t-169 67.5t-60.5 161.5zM168 1157.5q0 -65.5 38 -109.5t105.5 -44t105.5 44t38 109.5t-38 110.5t-105.5 45t-105.5 -45t-38 -110.5z" />
<glyph unicode="&#xb1;" horiz-adv-x="1187" d="M133 55.5q0 24.5 17.5 39t42.5 14.5h802q25 0 42.5 -14.5t17.5 -39t-17.5 -40t-42.5 -15.5h-802q-25 0 -42.5 15.5t-17.5 40zM133 682q0 25 17.5 40t42.5 15h342v326q0 25 17 42t41.5 17t42 -17.5t17.5 -41.5v-326h342q25 0 42.5 -15t17.5 -40t-17.5 -40t-42.5 -15h-342 v-326q0 -25 -17.5 -42t-42 -17t-41.5 17t-17 42v326h-342q-25 0 -42.5 15t-17.5 40z" />
<glyph unicode="&#xb2;" horiz-adv-x="968" d="M184 596q0 76 23.5 130t62.5 95t91 73l112 67l88 50q41 24 72 48t49 51t18 61q0 66 -51 92.5t-133 26.5q-57 0 -104 -14t-95 -39q-23 -12 -40 -12q-12 0 -22 6q-24 14 -24 39q0 31 33 51q57 35 123 51.5t131 16.5q133 0 211 -54.5t78 -163.5q0 -49 -20.5 -88t-55.5 -70.5 t-85 -61.5l-107 -62q-59 -33 -103.5 -60.5t-73 -56.5t-44 -60.5t-19.5 -72.5h467q20 0 34.5 -12.5t14.5 -32.5q0 -23 -14.5 -36t-34.5 -13h-533q-23 0 -36 14t-13 37z" />
<glyph unicode="&#xb3;" horiz-adv-x="919" d="M133 668q0 29 29 42q10 4 20 4q20 0 43 -18q100 -72 221 -71q102 0 160 45t58 118q0 82 -60.5 119t-161.5 37h-73q-20 0 -36 12.5t-16 34.5q0 20 14.5 32.5t37.5 12.5h73q86 0 132.5 41t46.5 97q0 61 -46.5 91.5t-113.5 30.5q-47 0 -87 -9t-85 -25q-35 -12 -54.5 1 t-19.5 35q0 31 37 48q47 23 101.5 33t107.5 10q121 0 191.5 -54.5t70.5 -156.5q0 -129 -137 -183q84 -14 132 -68.5t48 -140.5q0 -109 -84 -181.5t-233 -72.5q-86 0 -160 25t-129 66q-27 18 -27 45z" />
<glyph unicode="&#xb4;" horiz-adv-x="673" d="M215 1098q0 14 12 32l148 209q14 23 43 23q20 0 35.5 -12.5t15.5 -34.5q0 -12 -4 -20.5t-8 -14.5l-142 -199q-10 -12 -20 -22t-30.5 -10t-35 14.5t-14.5 34.5z" />
<glyph unicode="&#xb6;" horiz-adv-x="1234" d="M123 981q0 96 35 168t93 120t136 71.5t164 23.5h422q23 0 40 -14.5t17 -42.5v-1266q0 -23 -17.5 -40t-40 -17t-40 17t-17.5 40v1223h-221v-1606q0 -23 -17.5 -40t-40 -17t-39.5 17t-17 40v942h-29q-88 0 -166 24.5t-136.5 74t-92 120t-33.5 162.5zM242 981 q0 -137 84 -211t223 -74h31v568h-33q-66 0 -121 -17.5t-96 -52.5t-64.5 -88t-23.5 -125z" />
<glyph unicode="&#xb7;" horiz-adv-x="479" d="M154 553q0 35 25.5 60.5t60 25.5t60.5 -25.5t26 -60.5t-26 -60.5t-60.5 -25.5t-60 25.5t-25.5 60.5z" />
<glyph unicode="&#xb8;" horiz-adv-x="620" d="M133 -336q0 18 15.5 32.5t39.5 4.5q29 -10 56.5 -16.5t58.5 -6.5q111 0 111 72q0 29 -21.5 46.5t-68.5 17.5q-35 0 -57.5 -7.5t-49.5 -7.5q-18 0 -28.5 11.5t-10.5 23.5t8 31l60 137h84l-54 -129q33 16 76 16q72 0 114 -35.5t42 -101t-50 -108.5t-153 -43q-33 0 -69.5 5 t-73.5 21q-29 12 -29 37z" />
<glyph unicode="&#xb9;" horiz-adv-x="712" d="M143 1255q0 35 41 48l193 65l27 8q13 4 28 4q29 0 42 -15t13 -40v-731q0 -23 -15 -38t-37.5 -15t-38 15t-15.5 38v678l-174 -58q-29 -8 -46.5 6.5t-17.5 34.5z" />
<glyph unicode="&#xba;" horiz-adv-x="847" d="M113 1077q0 63 21.5 120.5t61.5 99.5t98 67t130 25t130 -25t98 -68t61.5 -99t21.5 -119.5t-21.5 -121t-61.5 -100.5t-98 -68.5t-130 -25.5t-130 24.5t-98 67.5t-61.5 100t-21.5 123zM207 1077.5q0 -98.5 56 -165t160.5 -66.5t161 66.5t56.5 165t-56.5 162t-161 63.5 t-160.5 -63.5t-56 -162z" />
<glyph unicode="&#xbb;" horiz-adv-x="1165" d="M143 121q0 14 6.5 24.5t14.5 18.5l289 272l-289 273q-8 8 -14.5 18t-6.5 25q0 20 16.5 34.5t39.5 14.5q12 0 20 -4t19 -13l323 -311q16 -16 16.5 -36.5t-16.5 -37.5l-323 -311q-10 -8 -18.5 -12t-20.5 -4q-23 0 -39.5 14.5t-16.5 34.5zM608 121q0 14 6.5 24.5t14.5 18.5 l289 272l-289 273q-8 8 -14.5 18t-6.5 25q0 20 16.5 34.5t39.5 14.5q12 0 20 -4t18 -13l324 -311q16 -16 16 -36.5t-16 -37.5l-324 -311q-10 -8 -18 -12t-20 -4q-23 0 -39.5 14.5t-16.5 34.5z" />
<glyph unicode="&#xbc;" horiz-adv-x="1824" d="M164 1255q0 35 41 48l192 65l28 8q13 4 28 4q29 0 42 -15t13 -40v-731q0 -23 -15.5 -38t-38 -15t-38 15t-15.5 38v678l-174 -58q-29 -8 -46 6.5t-17 34.5zM377 20q0 14 10 31l868 1309q16 29 48 29q18 0 33.5 -11.5t15.5 -34.5q0 -14 -13 -32l-868 -1309q-18 -27 -45 -27 q-20 0 -34.5 12.5t-14.5 32.5zM952 272q0 14 6.5 24.5t12.5 16.5l463 500q20 23 49 23q49 0 49 -54v-465h110q23 0 36.5 -10t13.5 -33q0 -18 -14 -30q-14 -13 -36 -13h-110v-186q0 -23 -15.5 -38t-38 -15t-38 15.5t-15.5 37.5v186h-426q-47 0 -47 41zM1094 317h331v359z" />
<glyph unicode="&#xbd;" horiz-adv-x="1925" d="M164 1255q0 35 41 48l192 65l28 8q13 4 28 4q29 0 42 -15t13 -40v-731q0 -23 -15.5 -38t-38 -15t-38 15t-15.5 38v678l-174 -58q-29 -8 -46 6.5t-17 34.5zM377 20q0 14 10 31l868 1309q16 29 48 29q18 0 33.5 -11.5t15.5 -34.5q0 -14 -13 -32l-868 -1309q-18 -27 -45 -27 q-20 0 -34.5 12.5t-14.5 32.5zM1141 51q0 76 23.5 130.5t62.5 95t91 72.5l112 67l88 50q41 24 71.5 48.5t49 51t18.5 61.5q0 66 -51.5 92t-132.5 26q-57 0 -104.5 -14t-94.5 -39q-23 -12 -41 -12q-12 0 -22 6q-24 14 -23 39q0 31 33 51q57 35 122.5 51.5t131.5 16.5 q133 0 210.5 -54.5t77.5 -162.5q0 -49 -20.5 -88t-55 -71t-84.5 -61l-108 -63q-59 -33 -103 -60.5t-73 -56t-44 -60.5t-20 -73h467q20 0 35 -12t15 -33q0 -23 -14.5 -36t-35.5 -13h-532q-23 0 -36 14t-13 37z" />
<glyph unicode="&#xbe;" horiz-adv-x="1970" d="M133 668q0 29 29 42q10 4 20 4q20 0 43 -18q100 -72 221 -71q102 0 160 45t58 118q0 82 -60.5 119t-161.5 37h-73q-20 0 -36 12.5t-16 34.5q0 20 14.5 32.5t37.5 12.5h73q86 0 132.5 41t46.5 97q0 61 -46.5 91.5t-113.5 30.5q-47 0 -87 -9t-85 -25q-35 -12 -54.5 1 t-19.5 35q0 31 37 48q47 23 101.5 33t107.5 10q121 0 191.5 -54.5t70.5 -156.5q0 -129 -137 -183q84 -14 132 -68.5t48 -140.5q0 -109 -84 -181.5t-233 -72.5q-86 0 -160 25t-129 66q-27 18 -27 45zM522 20q0 14 10 31l869 1309q16 29 47 29q18 0 33.5 -11.5t15.5 -34.5 q0 -14 -12 -32l-869 -1309q-18 -27 -45 -27q-20 0 -34.5 12.5t-14.5 32.5zM1098 272q0 14 6 24.5t12 16.5l463 500q20 23 49 23q49 0 49 -54v-465h111q23 0 36 -10t13 -33q0 -18 -13.5 -30.5t-35.5 -12.5h-111v-186q0 -23 -15 -38t-37.5 -15t-38 15.5t-15.5 37.5v186h-426 q-47 0 -47 41zM1239 317h332v359z" />
<glyph unicode="&#xbf;" horiz-adv-x="987" d="M102 -115q0 41 9.5 78t32 73t60.5 73.5t95 83.5q55 43 91 74.5t57.5 62t30.5 65.5t9 86v62q0 25 17.5 41t46.5 16q27 0 43 -17.5t16 -39.5v-60q0 -66 -11 -110.5t-35.5 -81.5t-62.5 -72t-91.5 -78t-88 -75.5t-56 -61.5t-31 -56.5t-9.5 -64.5q0 -96 80 -136t201 -40 q90 0 163.5 23.5t153.5 70.5q8 4 18.5 8.5t22.5 4.5q23 0 37 -14.5t14 -37.5q0 -20 -11 -31.5t-34 -25.5q-78 -51 -172 -77.5t-200 -26.5q-86 0 -159 17t-125 52t-82 88t-30 127zM463 827.5q0 34.5 25.5 60t60.5 25.5t60.5 -25.5t25.5 -60t-25.5 -60.5t-60.5 -26t-60.5 26 t-25.5 60.5z" />
<glyph unicode="&#xc0;" d="M98 39q0 12 8 29l570 1271q18 41 57 41t58 -41l569 -1271q8 -16 8 -29q0 -23 -15.5 -39t-43.5 -16q-23 0 -36 11t-20 28l-168 374h-704l-168 -374q-6 -16 -19.5 -27.5t-35.5 -11.5q-29 0 -44.5 16t-15.5 39zM428 506h610l-305 702zM543 1671q0 16 14 31.5t37 15.5 q16 0 28.5 -7t20.5 -17l113 -127q16 -20 16 -39t-14.5 -33t-37 -14t-48.5 28l-113 121q-16 18 -16 41z" />
<glyph unicode="&#xc1;" d="M98 39q0 12 8 29l570 1271q18 41 57 41t58 -41l569 -1271q8 -16 8 -29q0 -23 -15.5 -39t-43.5 -16q-23 0 -36 11t-20 28l-168 374h-704l-168 -374q-6 -16 -19.5 -27.5t-35.5 -11.5q-29 0 -44.5 16t-15.5 39zM428 506h610l-305 702zM676 1527.5q0 18.5 16 39.5l113 127 q8 10 20.5 17t28.5 7q23 0 37 -15t14 -32q0 -23 -16 -41l-113 -121q-27 -29 -49 -28.5t-36.5 14.5t-14.5 32.5z" />
<glyph unicode="&#xc2;" d="M98 39q0 12 8 29l570 1271q18 41 57 41t58 -41l569 -1271q8 -16 8 -29q0 -23 -15.5 -39t-43.5 -16q-23 0 -36 11t-20 28l-168 374h-704l-168 -374q-6 -16 -19.5 -27.5t-35.5 -11.5q-29 0 -44.5 16t-15.5 39zM428 506h610l-305 702zM487 1521.5q0 16.5 5.5 23.5t13.5 16 l186 141q10 8 18.5 12t20.5 4t20.5 -4t18.5 -12l186 -141q8 -8 13.5 -15.5t5.5 -24t-14.5 -28.5t-33 -12t-32.5 12l-164 117l-164 -117q-16 -12 -32 -12q-18 0 -33 12t-15 28.5z" />
<glyph unicode="&#xc3;" d="M98 39q0 12 8 29l570 1271q18 41 57 41t58 -41l569 -1271q8 -16 8 -29q0 -23 -15.5 -39t-43.5 -16q-23 0 -36 11t-20 28l-168 374h-704l-168 -374q-6 -16 -19.5 -27.5t-35.5 -11.5q-29 0 -44.5 16t-15.5 39zM428 506h610l-305 702zM453 1530q0 16 12 33q4 6 9 12t11 14 q31 39 66 57.5t86 18.5q53 0 104 -29l63 -35q26 -15 48 -15.5t35.5 10t36.5 32.5l20 21q6 6 14.5 12t24.5 6t31.5 -11t15.5 -30q0 -20 -12 -35q-4 -6 -11.5 -14t-13.5 -16q-29 -31 -61.5 -51.5t-77.5 -20.5q-35 0 -60.5 11t-60.5 32l-50 27q-19 10 -46 10q-20 0 -37.5 -8.5 t-38.5 -30.5l-22 -25q-6 -6 -14.5 -12t-25 -6t-31.5 12.5t-15 30.5z" />
<glyph unicode="&#xc4;" d="M98 39q0 12 8 29l570 1271q18 41 57 41t58 -41l569 -1271q8 -16 8 -29q0 -23 -15.5 -39t-43.5 -16q-23 0 -36 11t-20 28l-168 374h-704l-168 -374q-6 -16 -19.5 -27.5t-35.5 -11.5q-29 0 -44.5 16t-15.5 39zM428 506h610l-305 702zM451 1607.5q0 34.5 23.5 58.5t58 24 t58 -24t23.5 -58.5t-23.5 -58t-58 -23.5t-58 23.5t-23.5 58zM852 1607.5q0 34.5 23.5 58.5t58.5 24t58.5 -24t23.5 -58.5t-23.5 -58t-58.5 -23.5t-58.5 23.5t-23.5 58z" />
<glyph unicode="&#xc5;" d="M98 39q0 12 8 29l566 1263q-39 16 -62.5 51t-23.5 82q0 61 42 103.5t105.5 42.5t105.5 -42t42 -104q0 -47 -23.5 -81.5t-62.5 -51.5l565 -1263q8 -16 8 -29q0 -23 -15.5 -39t-43.5 -16q-23 0 -36 11t-20 28l-168 374h-704l-168 -374q-6 -16 -19.5 -27.5t-35.5 -11.5 q-29 0 -44.5 16t-15.5 39zM428 506h610l-305 702zM655 1464.5q0 -34.5 21.5 -59.5t56.5 -25t56.5 25t21.5 59.5t-21.5 59t-56.5 24.5t-56.5 -24.5t-21.5 -59z" />
<glyph unicode="&#xc6;" horiz-adv-x="1925" d="M98 39q0 12 8 29l570 1255q10 20 23.5 30.5t37.5 10.5h1039q23 0 39 -16.5t16 -39t-16.5 -39t-38.5 -16.5h-955l223 -493h426q23 0 39.5 -16.5t16.5 -39t-16.5 -39t-39.5 -16.5h-374l243 -538h439q23 0 39 -16.5t16 -39t-16.5 -39t-38.5 -16.5h-475q-23 0 -37.5 11.5 t-20.5 27.5l-160 358h-704l-168 -374q-6 -16 -19.5 -27.5t-35.5 -11.5q-29 0 -44.5 16t-15.5 39zM428 506h610l-305 692z" />
<glyph unicode="&#xc7;" horiz-adv-x="1443" d="M119 682q0 145 48 274t137 225.5t215 152t282 55.5q92 0 170 -19.5t142.5 -54.5t117.5 -82t94 -103l11 -19q5 -9 5 -21q0 -25 -16 -40.5t-41 -15.5q-27 0 -43 23q-39 49 -82 89t-96 68.5t-117.5 45t-144.5 16.5q-133 0 -236.5 -49t-175.5 -131t-109.5 -189.5 t-37.5 -224.5t37.5 -224.5t109.5 -189.5t175.5 -131t236.5 -49q80 0 144.5 16.5t117.5 45t96 68.5t82 89q16 23 43 23q25 0 41 -15.5t16 -40.5q0 -12 -5 -21l-11 -20q-80 -104 -199.5 -175.5t-289.5 -80.5l-43 -104q33 16 75 16q72 0 114 -35.5t42 -101t-50 -108.5t-153 -43 q-33 0 -69.5 5t-73.5 21q-29 12 -29 37q0 18 15.5 32.5t40.5 4.5q29 -10 56 -16.5t58 -6.5q111 0 111 72q0 29 -21.5 46.5t-68.5 17.5q-35 0 -57.5 -7.5t-49.5 -7.5q-18 0 -28.5 11.5t-10.5 23.5t8 31l48 112q-145 8 -261 67.5t-199 155t-127 219.5t-44 263z" />
<glyph unicode="&#xc8;" horiz-adv-x="1193" d="M195 61v1242q0 27 17 44t44 17h788q23 0 39.5 -16.5t16.5 -39t-16.5 -39t-39.5 -16.5h-727v-493h422q23 0 39.5 -16.5t16.5 -39t-16.5 -39t-39.5 -16.5h-422v-538h730q23 0 39 -16.5t16 -39t-16.5 -39t-38.5 -16.5h-791q-27 0 -44 17t-17 44zM489 1671q0 16 14.5 31.5 t37.5 15.5q16 0 28.5 -7t20.5 -17l112 -127q16 -20 16.5 -39t-14 -33t-37 -14t-49.5 28l-112 121q-17 18 -17 41z" />
<glyph unicode="&#xc9;" horiz-adv-x="1193" d="M195 61v1242q0 27 17 44t44 17h788q23 0 39.5 -16.5t16.5 -39t-16.5 -39t-39.5 -16.5h-727v-493h422q23 0 39.5 -16.5t16.5 -39t-16.5 -39t-39.5 -16.5h-422v-538h730q23 0 39 -16.5t16 -39t-16.5 -39t-38.5 -16.5h-791q-27 0 -44 17t-17 44zM569 1527.5q0 18.5 17 39.5 l112 127q8 10 20.5 17t29.5 7q23 0 37 -15t14 -32q0 -23 -17 -41l-112 -121q-27 -29 -49.5 -28.5t-37 14.5t-14.5 32.5z" />
<glyph unicode="&#xca;" horiz-adv-x="1193" d="M195 61v1242q0 27 17 44t44 17h788q23 0 39.5 -16.5t16.5 -39t-16.5 -39t-39.5 -16.5h-727v-493h422q23 0 39.5 -16.5t16.5 -39t-16.5 -39t-39.5 -16.5h-422v-538h730q23 0 39 -16.5t16 -39t-16.5 -39t-38.5 -16.5h-791q-27 0 -44 17t-17 44zM408 1521.5q0 16.5 5 23.5 t13 16l186 141q10 8 18.5 12t21 4t20.5 -4t18 -12l187 -141q8 -8 13 -15.5t5 -24t-14.5 -28.5t-33 -12t-32.5 12l-164 117l-164 -117q-16 -12 -32 -12q-18 0 -32.5 12t-14.5 28.5z" />
<glyph unicode="&#xcb;" horiz-adv-x="1193" d="M195 61v1242q0 27 17 44t44 17h788q23 0 39.5 -16.5t16.5 -39t-16.5 -39t-39.5 -16.5h-727v-493h422q23 0 39.5 -16.5t16.5 -39t-16.5 -39t-39.5 -16.5h-422v-538h730q23 0 39 -16.5t16 -39t-16.5 -39t-38.5 -16.5h-791q-27 0 -44 17t-17 44zM373 1607.5 q0 34.5 23.5 58.5t58 24t58.5 -24t24 -58.5t-24 -58t-58.5 -23.5t-58 23.5t-23.5 58zM774 1607.5q0 34.5 23.5 58.5t58.5 24t58.5 -24t23.5 -58.5t-23.5 -58t-58.5 -23.5t-58.5 23.5t-23.5 58z" />
<glyph unicode="&#xcc;" horiz-adv-x="532" d="M100 1671q0 16 14.5 31.5t37.5 15.5q16 0 28.5 -7t20.5 -17l112 -127q16 -20 16.5 -39t-14 -33t-37 -14t-49.5 28l-112 121q-17 18 -17 41zM205 45v1274q0 27 17.5 44t44 17t44 -17t17.5 -44v-1274q0 -27 -17.5 -44t-44 -17t-44 17t-17.5 44z" />
<glyph unicode="&#xcd;" horiz-adv-x="532" d="M205 45v1274q0 27 17.5 44t44 17t44 -17t17.5 -44v-1274q0 -27 -17.5 -44t-44 -17t-44 17t-17.5 44zM205 1527.5q0 18.5 16 39.5l113 127q8 10 20.5 17t28.5 7q23 0 37 -15t14 -32q0 -23 -16 -41l-113 -121q-27 -29 -49.5 -28.5t-36.5 14.5t-14 32.5z" />
<glyph unicode="&#xce;" horiz-adv-x="532" d="M25 1521.5q0 16.5 5 23.5t13 16l186 141q10 8 18.5 12t21 4t20.5 -4t18 -12l187 -141q8 -8 13 -15.5t5 -24t-14.5 -28.5t-33 -12t-32.5 12l-164 117l-164 -117q-16 -12 -32 -12q-18 0 -32.5 12t-14.5 28.5zM205 45v1274q0 27 17.5 44t44 17t44 -17t17.5 -44v-1274 q0 -27 -17.5 -44t-44 -17t-44 17t-17.5 44z" />
<glyph unicode="&#xcf;" horiz-adv-x="532" d="M-14 1607.5q0 34.5 23.5 58.5t58 24t58.5 -24t24 -58.5t-24 -58t-58.5 -23.5t-58 23.5t-23.5 58zM205 45v1274q0 27 17.5 44t44 17t44 -17t17.5 -44v-1274q0 -27 -17.5 -44t-44 -17t-44 17t-17.5 44zM387 1607.5q0 34.5 23.5 58.5t58.5 24t58.5 -24t23.5 -58.5t-23.5 -58 t-58.5 -23.5t-58.5 23.5t-23.5 58z" />
<glyph unicode="&#xd0;" horiz-adv-x="1529" d="M78 682q0 25 17.5 39t39.5 14h158v568q0 27 17.5 44t43.5 17h389q156 0 281 -53.5t214 -145.5t137 -216t48 -267t-48 -267t-137 -216.5t-214 -145.5t-281 -53h-389q-29 0 -45 18.5t-16 42.5v568h-158q-23 0 -40 14t-17 39zM416 111h319q133 0 238.5 44t178.5 120.5 t110.5 181t37.5 225.5t-37.5 225.5t-110.5 181t-178.5 120.5t-238.5 44h-319v-518h327q23 0 40.5 -14t17.5 -39t-17.5 -39t-40.5 -14h-327v-518z" />
<glyph unicode="&#xd1;" horiz-adv-x="1480" d="M195 41v1280q0 27 16 43t45 16q16 0 27.5 -8t19.5 -18l866 -1147v1114q0 27 16.5 43t43 16t42 -17t15.5 -42v-1280q0 -23 -15.5 -40t-43.5 -17q-16 0 -26.5 7t-20.5 19l-869 1145v-1114q0 -23 -16 -40t-41 -17q-27 0 -43 17t-16 40zM457 1530q0 16 12 33q4 6 9 12t11 14 q31 39 66 57.5t86 18.5q53 0 104 -29l63 -35q26 -15 48.5 -15.5t35.5 10t36 32.5l20 21q6 6 14.5 12t25 6t31.5 -11t15 -30q0 -20 -12 -35q-4 -6 -11 -14l-14 -16q-29 -31 -61.5 -51.5t-77.5 -20.5q-35 0 -60.5 11t-60.5 32l-50 27q-19 10 -46 10q-20 0 -37.5 -8.5 t-38.5 -30.5l-22 -25q-6 -6 -14.5 -12t-25 -6t-31.5 12.5t-15 30.5z" />
<glyph unicode="&#xd2;" horiz-adv-x="1609" d="M119 682q0 143 50 271t140 224.5t217 154t281 57.5t279.5 -57.5t216 -154t139.5 -224.5t49 -271t-49 -271t-139.5 -225.5t-216 -154t-279.5 -56.5t-281 56.5t-217 154t-140 225.5t-50 271zM242 682q0 -117 38.5 -225.5t111.5 -191.5t177.5 -132t237.5 -49q131 0 235.5 49 t177 132t110.5 191.5t38 225.5t-38 225.5t-110.5 191.5t-177 132t-235.5 49q-133 0 -237.5 -49t-177.5 -132t-111.5 -191.5t-38.5 -225.5zM637 1671q0 16 14.5 31.5t36.5 15.5q16 0 28.5 -7t20.5 -17l113 -127q16 -20 16 -39t-14 -33t-36.5 -14t-49.5 28l-113 121 q-16 18 -16 41z" />
<glyph unicode="&#xd3;" horiz-adv-x="1585" d="M106 682q0 143 50.5 271t140.5 224.5t217 154t280.5 57.5t279.5 -57.5t216 -154t139.5 -224.5t49.5 -271t-49.5 -271t-139.5 -225.5t-216 -154t-279.5 -56.5t-280.5 56.5t-217 154t-140.5 225.5t-50.5 271zM229 682q0 -117 39 -225.5t112 -191.5t177.5 -132t237.5 -49 q131 0 235.5 49t177 132t110.5 191.5t38 225.5t-38 225.5t-110.5 191.5t-177 132t-235.5 49q-133 0 -237.5 -49t-177.5 -132t-112 -191.5t-39 -225.5zM729 1527.5q0 18.5 16 39.5l113 127q8 10 20.5 17t28.5 7q23 0 37 -15t14 -32q0 -23 -16 -41l-113 -121 q-27 -29 -49 -28.5t-36.5 14.5t-14.5 32.5z" />
<glyph unicode="&#xd4;" horiz-adv-x="1585" d="M106 682q0 143 50.5 271t140.5 224.5t217 154t280.5 57.5t279.5 -57.5t216 -154t139.5 -224.5t49.5 -271t-49.5 -271t-139.5 -225.5t-216 -154t-279.5 -56.5t-280.5 56.5t-217 154t-140.5 225.5t-50.5 271zM229 682q0 -117 39 -225.5t112 -191.5t177.5 -132t237.5 -49 q131 0 235.5 49t177 132t110.5 191.5t38 225.5t-38 225.5t-110.5 191.5t-177 132t-235.5 49q-133 0 -237.5 -49t-177.5 -132t-112 -191.5t-39 -225.5zM551 1521.5q0 16.5 5 23.5t13 16l187 141q10 8 18 12t20.5 4t20.5 -4t19 -12l186 -141q8 -8 13 -15.5t5 -24t-14 -28.5 t-32.5 -12t-33.5 12l-163 117l-164 -117q-16 -12 -33 -12q-18 0 -32.5 12t-14.5 28.5z" />
<glyph unicode="&#xd5;" horiz-adv-x="1585" d="M106 682q0 143 50.5 271t140.5 224.5t217 154t280.5 57.5t279.5 -57.5t216 -154t139.5 -224.5t49.5 -271t-49.5 -271t-139.5 -225.5t-216 -154t-279.5 -56.5t-280.5 56.5t-217 154t-140.5 225.5t-50.5 271zM229 682q0 -117 39 -225.5t112 -191.5t177.5 -132t237.5 -49 q131 0 235.5 49t177 132t110.5 191.5t38 225.5t-38 225.5t-110.5 191.5t-177 132t-235.5 49q-133 0 -237.5 -49t-177.5 -132t-112 -191.5t-39 -225.5zM510 1530q0 16 12 33q4 6 9.5 12t11.5 14q31 39 65.5 57.5t85.5 18.5q53 0 105 -29l62 -35q26 -15 48.5 -15.5t35.5 10 t36 32.5l20 21q6 6 14.5 12t25 6t31.5 -11t15 -30q0 -20 -12 -35q-4 -6 -11 -14t-13 -16q-29 -31 -62 -51.5t-78 -20.5q-35 0 -60.5 11t-59.5 32l-51 27q-19 10 -46 10q-20 0 -37.5 -8.5t-38.5 -30.5l-22 -25q-6 -6 -14.5 -12t-24.5 -6t-31.5 12.5t-15.5 30.5z" />
<glyph unicode="&#xd6;" horiz-adv-x="1585" d="M106 682q0 143 50.5 271t140.5 224.5t217 154t280.5 57.5t279.5 -57.5t216 -154t139.5 -224.5t49.5 -271t-49.5 -271t-139.5 -225.5t-216 -154t-279.5 -56.5t-280.5 56.5t-217 154t-140.5 225.5t-50.5 271zM229 682q0 -117 39 -225.5t112 -191.5t177.5 -132t237.5 -49 q131 0 235.5 49t177 132t110.5 191.5t38 225.5t-38 225.5t-110.5 191.5t-177 132t-235.5 49q-133 0 -237.5 -49t-177.5 -132t-112 -191.5t-39 -225.5zM512 1607.5q0 34.5 23.5 58.5t58.5 24t58.5 -24t23.5 -58.5t-23.5 -58t-58.5 -23.5t-58.5 23.5t-23.5 58zM913 1607.5 q0 34.5 24 58.5t58.5 24t58 -24t23.5 -58.5t-23.5 -58t-58 -23.5t-58.5 23.5t-24 58z" />
<glyph unicode="&#xd7;" horiz-adv-x="1034" d="M174 379q0 25 16 41l242 242l-242 241q-16 20 -16 43q0 27 17.5 42.5t42 15.5t40.5 -17l242 -242l242 242q16 16 42.5 16.5t42 -17t15.5 -40.5q0 -27 -16 -43l-242 -241l240 -240q10 -10 15 -18.5t5 -24.5q0 -25 -18.5 -42.5t-41 -17.5t-42.5 17l-242 242l-242 -242 q-16 -16 -41 -17q-27 0 -43 16.5t-16 43.5z" />
<glyph unicode="&#xd8;" horiz-adv-x="1585" d="M106 -84q0 10 4.5 17.5t10.5 15.5l188 223q-98 98 -150.5 230.5t-52.5 279.5q0 143 50.5 271t140.5 224.5t217 154t281 57.5q123 0 227 -37t188 -103l189 226q16 16 35 16q23 0 34 -14.5t11 -30.5q0 -14 -11 -29l-190 -227q96 -98 148.5 -229.5t52.5 -278.5 q0 -143 -49.5 -271t-139.5 -225.5t-216 -154t-279 -56.5q-123 0 -228.5 37t-191.5 103l-185 -221q-16 -20 -38 -21q-16 0 -31 13.5t-15 29.5zM229 682q0 -121 39 -229.5t115 -192.5l756 903q-68 55 -154 86t-190 31q-133 0 -237.5 -49t-177.5 -132t-112 -191.5t-39 -225.5z M446 201q70 -55 157 -86t192 -31q131 0 235.5 49t177 132t110.5 191.5t38 225.5q0 119 -39 227.5t-113 192.5z" />
<glyph unicode="&#xd9;" horiz-adv-x="1523" d="M186 537v782q0 27 17.5 44t44 17t44 -17t17.5 -44v-791q0 -100 26.5 -182t82 -140.5t140.5 -90t204 -31.5t204 31.5t140 90t81.5 140.5t26.5 182v791q0 27 17.5 44t44.5 17t44 -17t17 -44v-782q0 -129 -40 -232.5t-114.5 -176.5t-181 -113t-239.5 -40t-239.5 40 t-181.5 113t-115 176.5t-40 232.5zM608 1671q0 16 14.5 31.5t36.5 15.5q16 0 28.5 -7t21.5 -17l112 -127q16 -20 16.5 -39t-14 -33t-37 -14t-49.5 28l-112 121q-17 18 -17 41z" />
<glyph unicode="&#xda;" horiz-adv-x="1523" d="M186 537v782q0 27 17.5 44t44 17t44 -17t17.5 -44v-791q0 -100 26.5 -182t82 -140.5t140.5 -90t204 -31.5t204 31.5t140 90t81.5 140.5t26.5 182v791q0 27 17.5 44t44.5 17t44 -17t17 -44v-782q0 -129 -40 -232.5t-114.5 -176.5t-181 -113t-239.5 -40t-239.5 40 t-181.5 113t-115 176.5t-40 232.5zM680 1527.5q0 18.5 16 39.5l113 127q8 10 20.5 17t28.5 7q23 0 37 -15t14 -32q0 -23 -16 -41l-113 -121q-27 -29 -49 -28.5t-36.5 14.5t-14.5 32.5z" />
<glyph unicode="&#xdb;" horiz-adv-x="1523" d="M186 537v782q0 27 17.5 44t44 17t44 -17t17.5 -44v-791q0 -100 26.5 -182t82 -140.5t140.5 -90t204 -31.5t204 31.5t140 90t81.5 140.5t26.5 182v791q0 27 17.5 44t44.5 17t44 -17t17 -44v-782q0 -129 -40 -232.5t-114.5 -176.5t-181 -113t-239.5 -40t-239.5 40 t-181.5 113t-115 176.5t-40 232.5zM516 1521.5q0 16.5 5 23.5t14 16l186 141q10 8 18.5 12t20.5 4t20 -4t19 -12l186 -141q8 -8 13.5 -15.5t5.5 -24t-14.5 -28.5t-33 -12t-32.5 12l-164 117l-164 -117q-16 -12 -33 -12q-18 0 -32.5 12t-14.5 28.5z" />
<glyph unicode="&#xdc;" horiz-adv-x="1523" d="M186 537v782q0 27 17.5 44t44 17t44 -17t17.5 -44v-791q0 -100 26.5 -182t82 -140.5t140.5 -90t204 -31.5t204 31.5t140 90t81.5 140.5t26.5 182v791q0 27 17.5 44t44.5 17t44 -17t17 -44v-782q0 -129 -40 -232.5t-114.5 -176.5t-181 -113t-239.5 -40t-239.5 40 t-181.5 113t-115 176.5t-40 232.5zM477 1607.5q0 34.5 23.5 58.5t58.5 24t58.5 -24t23.5 -58.5t-23.5 -58t-58.5 -23.5t-58.5 23.5t-23.5 58zM879 1607.5q0 34.5 23.5 58.5t58 24t58 -24t23.5 -58.5t-23.5 -58t-58 -23.5t-58 23.5t-23.5 58z" />
<glyph unicode="&#xdd;" horiz-adv-x="1130" d="M10 1325q0 27 16.5 41t39.5 14q33 0 53 -28l446 -639l447 639q20 29 53 28q23 0 39 -14t16 -41q0 -16 -12 -35l-481 -692v-553q0 -27 -17.5 -44t-44 -17t-44 17t-17.5 44v553l-481 692q-13 19 -13 35zM510 1527.5q0 18.5 16 39.5l113 127q8 10 20.5 17t28.5 7 q23 0 37 -15t14 -32q0 -23 -16 -41l-113 -121q-27 -29 -49 -28.5t-36.5 14.5t-14.5 32.5z" />
<glyph unicode="&#xde;" horiz-adv-x="1294" d="M195 45v1274q0 27 17 44t44 17t44 -17t17 -44v-248h486q100 0 179 -29.5t132 -81t81 -121t28 -151.5t-28 -151.5t-81 -120.5t-132 -81t-179 -30h-486v-260q0 -27 -16 -44t-45 -17q-27 0 -44 17t-17 44zM317 416h510q129 0 201 77.5t72 194.5t-72 195t-201 78h-510v-545z " />
<glyph unicode="&#xdf;" horiz-adv-x="1282" d="M174 45v944q0 188 98.5 294t300.5 106q86 0 158 -21.5t123 -61.5t79 -96.5t28 -126.5q0 -74 -33 -127t-84 -114l-50 -60q-22 -25 -37.5 -46t-23.5 -41.5t-8 -45t7 -44t28.5 -38t59.5 -37t99.5 -41t111.5 -49t85 -58.5t54.5 -73t19.5 -94q0 -104 -86 -172t-246 -68 q-78 0 -156.5 24t-138.5 69q-29 20 -28 45q0 23 13 36t36 13q14 0 24.5 -5t20.5 -14q47 -31 103 -52t130 -21q104 0 156.5 38.5t52.5 98.5q0 76 -55 113.5t-154 76.5q-135 51 -197.5 104.5t-62.5 143.5q0 66 31 111t86 110l86 107q37 47 37 110q0 53 -22.5 91t-60.5 63 t-86 36t-100 11q-141 0 -208.5 -73.5t-67.5 -217.5v-948q0 -25 -16.5 -43t-45 -18t-45 18t-16.5 43z" />
<glyph unicode="&#xe0;" horiz-adv-x="1056" d="M117 244q0 61 26.5 111.5t75.5 86t119 55t156 19.5q100 0 175.5 -35t110.5 -75v120q0 147 -72.5 215t-224.5 68q-74 0 -133 -14.5t-119 -38.5q-4 -2 -11 -4t-17 -2q-53 0 -53 51q0 16 9 27.5t21 17.5q59 31 134 49t180 18q195 0 302 -99t107 -286v-483q0 -25 -16.5 -43 t-45 -18t-45 18t-16.5 43v45q-53 -59 -132 -87t-173 -28q-166 0 -262 76t-96 193zM240 244q0 -84 69.5 -131t184.5 -47q55 0 107 12t92 35.5t63.5 56.5t23.5 74q0 43 -23.5 75.5t-63.5 56t-90 36t-101 12.5q-121 0 -191.5 -49t-70.5 -131zM332 1315q0 23 15 35t36 12 q29 0 43 -23l147 -209q12 -18 13 -32q0 -20 -14.5 -34.5t-35 -14.5t-30.5 9t-21 23l-141 199q-4 6 -8 14.5t-4 20.5z" />
<glyph unicode="&#xe1;" horiz-adv-x="1056" d="M117 244q0 61 26.5 111.5t75.5 86t119 55t156 19.5q100 0 175.5 -35t110.5 -75v120q0 147 -72.5 215t-224.5 68q-74 0 -133 -14.5t-119 -38.5q-4 -2 -11 -4t-17 -2q-53 0 -53 51q0 16 9 27.5t21 17.5q59 31 134 49t180 18q195 0 302 -99t107 -286v-483q0 -25 -16.5 -43 t-45 -18t-45 18t-16.5 43v45q-53 -59 -132 -87t-173 -28q-166 0 -262 76t-96 193zM240 244q0 -84 69.5 -131t184.5 -47q55 0 107 12t92 35.5t63.5 56.5t23.5 74q0 43 -23.5 75.5t-63.5 56t-90 36t-101 12.5q-121 0 -191.5 -49t-70.5 -131zM442 1098q0 14 13 32l147 209 q14 23 43 23q20 0 35.5 -12.5t15.5 -34.5q0 -12 -4 -20.5t-8 -14.5l-141 -199q-10 -12 -20.5 -22t-31 -10t-35 14.5t-14.5 34.5z" />
<glyph unicode="&#xe2;" horiz-adv-x="1056" d="M117 244q0 61 26.5 111.5t75.5 86t119 55t156 19.5q100 0 175.5 -35t110.5 -75v120q0 147 -72.5 215t-224.5 68q-74 0 -133 -14.5t-119 -38.5q-4 -2 -11 -4t-17 -2q-53 0 -53 51q0 16 9 27.5t21 17.5q59 31 134 49t180 18q195 0 302 -99t107 -286v-483q0 -25 -16.5 -43 t-45 -18t-45 18t-16.5 43v45q-53 -59 -132 -87t-173 -28q-166 0 -262 76t-96 193zM240 244q0 -84 69.5 -131t184.5 -47q55 0 107 12t92 35.5t63.5 56.5t23.5 74q0 43 -23.5 75.5t-63.5 56t-90 36t-101 12.5q-121 0 -191.5 -49t-70.5 -131zM268 1087.5q0 16.5 5.5 23.5 t13.5 15l194 181q16 16 39 16t39 -16l195 -181q8 -8 13 -15t5 -23.5t-14.5 -28.5t-32.5 -12t-33 12l-172 151l-172 -151q-16 -12 -33 -12q-18 0 -32.5 12t-14.5 28.5z" />
<glyph unicode="&#xe3;" horiz-adv-x="1056" d="M117 244q0 61 26.5 111.5t75.5 86t119 55t156 19.5q100 0 175.5 -35t110.5 -75v120q0 147 -72.5 215t-224.5 68q-74 0 -133 -14.5t-119 -38.5q-4 -2 -11 -4t-17 -2q-53 0 -53 51q0 16 9 27.5t21 17.5q59 31 134 49t180 18q195 0 302 -99t107 -286v-483q0 -25 -16.5 -43 t-45 -18t-45 18t-16.5 43v45q-53 -59 -132 -87t-173 -28q-166 0 -262 76t-96 193zM229 1104q0 16 13 33q4 6 9 12t11 14q31 39 65.5 57.5t86.5 18.5q53 0 104 -29l63 -35q26 -15 48 -15.5t35.5 10t35.5 32.5l21 21q6 6 14 12t24.5 6t32 -11t15.5 -30q0 -20 -12 -35 q-4 -6 -11.5 -14t-13.5 -16q-29 -31 -61.5 -51.5t-77.5 -20.5q-35 0 -60.5 11t-60.5 32l-50 27q-19 10 -46 10q-20 0 -38 -8.5t-38 -30.5l-23 -25q-6 -6 -14 -12t-24.5 -6t-32 12.5t-15.5 30.5zM240 244q0 -84 69.5 -131t184.5 -47q55 0 107 12t92 35.5t63.5 56.5t23.5 74 q0 43 -23.5 75.5t-63.5 56t-90 36t-101 12.5q-121 0 -191.5 -49t-70.5 -131z" />
<glyph unicode="&#xe4;" horiz-adv-x="1056" d="M117 244q0 61 26.5 111.5t75.5 86t119 55t156 19.5q100 0 175.5 -35t110.5 -75v120q0 147 -72.5 215t-224.5 68q-74 0 -133 -14.5t-119 -38.5q-4 -2 -11 -4t-17 -2q-53 0 -53 51q0 16 9 27.5t21 17.5q59 31 134 49t180 18q195 0 302 -99t107 -286v-483q0 -25 -16.5 -43 t-45 -18t-45 18t-16.5 43v45q-53 -59 -132 -87t-173 -28q-166 0 -262 76t-96 193zM240 244q0 -84 69.5 -131t184.5 -47q55 0 107 12t92 35.5t63.5 56.5t23.5 74q0 43 -23.5 75.5t-63.5 56t-90 36t-101 12.5q-121 0 -191.5 -49t-70.5 -131zM276 1157q0 35 24 58.5t58.5 23.5 t58 -23.5t23.5 -58.5t-23.5 -58.5t-58 -23.5t-58.5 23.5t-24 58.5zM616 1157q0 35 24 58.5t58.5 23.5t58 -23.5t23.5 -58.5t-23.5 -58.5t-58 -23.5t-58.5 23.5t-24 58.5z" />
<glyph unicode="&#xe5;" horiz-adv-x="1056" d="M117 244q0 61 26.5 111.5t75.5 86t119 55t156 19.5q100 0 175.5 -35t110.5 -75v120q0 147 -72.5 215t-224.5 68q-74 0 -133 -14.5t-119 -38.5q-4 -2 -11 -4t-17 -2q-53 0 -53 51q0 16 9 27.5t21 17.5q59 31 134 49t180 18q195 0 302 -99t107 -286v-483q0 -25 -16.5 -43 t-45 -18t-45 18t-16.5 43v45q-53 -59 -132 -87t-173 -28q-166 0 -262 76t-96 193zM240 244q0 -84 69.5 -131t184.5 -47q55 0 107 12t92 35.5t63.5 56.5t23.5 74q0 43 -23.5 75.5t-63.5 56t-90 36t-101 12.5q-121 0 -191.5 -49t-70.5 -131zM371 1167.5q0 61.5 42 103.5 t105.5 42t105.5 -42t42 -103.5t-42 -103.5t-105.5 -42t-105.5 42t-42 103.5zM440 1167.5q0 -34.5 21.5 -59.5t56.5 -25t56.5 25t21.5 59.5t-21.5 59t-56.5 24.5t-56.5 -24.5t-21.5 -59z" />
<glyph unicode="&#xe6;" horiz-adv-x="1775" d="M117 244q0 61 26.5 111.5t75.5 86t119 55t156 19.5q100 0 175.5 -35t110.5 -75v120q0 147 -72.5 215t-224.5 68q-74 0 -133 -14.5t-119 -38.5q-4 -2 -11 -4t-17 -2q-53 0 -53 51q0 16 9 27.5t21 17.5q59 31 134 49t180 18q135 0 228 -53t132 -166q63 111 159.5 165 t223.5 54q94 0 173 -34.5t136.5 -96t89 -145.5t31.5 -182q0 -23 -15.5 -37.5t-35.5 -14.5h-711q0 -61 20.5 -120.5t63.5 -104.5t107.5 -72.5t152.5 -27.5q168 0 279 131q8 10 19.5 18.5t27.5 8.5q25 0 38 -15.5t13 -36.5q0 -18 -12 -37q-53 -72 -147.5 -122t-217.5 -50 q-72 0 -132 15.5t-107 41t-83 59.5t-57 69q-55 -86 -152 -135.5t-237 -49.5q-174 0 -269 76t-95 193zM240 244q0 -84 66.5 -131t187.5 -47q55 0 107 12t92 35.5t63.5 56.5t23.5 74q0 43 -23.5 75.5t-63.5 56t-90 36t-101 12.5q-121 0 -191.5 -49t-70.5 -131zM909 506h645 q-6 63 -31.5 119.5t-67.5 97.5t-97 64.5t-121 23.5q-68 0 -125 -23.5t-100 -64.5t-70 -97.5t-33 -119.5z" />
<glyph unicode="&#xe7;" horiz-adv-x="1038" d="M109 444q0 100 35.5 186.5t98 149t148.5 98t187 35.5q127 0 220 -51t140 -121q12 -18 12 -36q0 -23 -17.5 -37.5t-41.5 -14.5q-16 0 -25.5 7.5t-17.5 17.5q-55 66 -116.5 97.5t-153.5 31.5q-76 0 -139.5 -28.5t-109.5 -78t-72 -115t-26 -141t26 -141t72 -115t109.5 -78 t139.5 -28.5q92 0 153.5 31.5t116.5 97.5q8 10 17 17.5t26 7.5q25 0 42 -14.5t17 -37.5q0 -18 -12 -37q-45 -66 -131 -114.5t-203 -55.5l-43 -104q33 16 76 16q72 0 114 -35.5t42 -101t-50.5 -108.5t-152.5 -43q-33 0 -70 5t-74 21q-29 12 -28 37q0 18 15.5 32.5t39.5 4.5 q29 -10 56.5 -16.5t58.5 -6.5q111 0 110 72q0 29 -21.5 46.5t-68.5 17.5q-35 0 -57.5 -7.5t-48.5 -7.5q-18 0 -28.5 11.5t-10.5 23.5t8 31l49 115q-90 8 -165.5 47t-130 100t-85 142t-30.5 175z" />
<glyph unicode="&#xe8;" horiz-adv-x="1101" d="M106 444q0 94 34 179.5t93.5 150t143.5 102t186 37.5q94 0 173 -34.5t136.5 -96t89 -145.5t31.5 -182q0 -23 -15 -37.5t-36 -14.5h-711q2 -61 26 -119.5t68 -103.5t107.5 -72.5t142.5 -27.5q170 0 279 129q8 10 19.5 18.5t27.5 8.5q25 0 38 -15.5t13 -36.5q0 -18 -12 -37 q-53 -72 -147.5 -122t-217.5 -50q-111 0 -197.5 39t-147 103.5t-92.5 149.5t-32 177zM236 506h645q-6 63 -32 119.5t-68 97.5t-97 64.5t-121 23.5q-68 0 -125 -24.5t-100 -65.5t-69.5 -96.5t-32.5 -118.5zM383 1315q0 23 15.5 35t35.5 12q29 0 43 -23l148 -209 q12 -18 12 -32q0 -20 -14.5 -34.5t-35 -14.5t-30.5 9t-20 23l-142 199q-4 6 -8 14.5t-4 20.5z" />
<glyph unicode="&#xe9;" horiz-adv-x="1101" d="M106 444q0 94 34 179.5t93.5 150t143.5 102t186 37.5q94 0 173 -34.5t136.5 -96t89 -145.5t31.5 -182q0 -23 -15 -37.5t-36 -14.5h-711q2 -61 26 -119.5t68 -103.5t107.5 -72.5t142.5 -27.5q170 0 279 129q8 10 19.5 18.5t27.5 8.5q25 0 38 -15.5t13 -36.5q0 -18 -12 -37 q-53 -72 -147.5 -122t-217.5 -50q-111 0 -197.5 39t-147 103.5t-92.5 149.5t-32 177zM236 506h645q-6 63 -32 119.5t-68 97.5t-97 64.5t-121 23.5q-68 0 -125 -24.5t-100 -65.5t-69.5 -96.5t-32.5 -118.5zM467 1098q0 14 12 32l148 209q14 23 43 23q20 0 35.5 -12.5 t15.5 -34.5q0 -12 -4 -20.5t-8 -14.5l-142 -199q-10 -12 -20 -22t-30.5 -10t-35 14.5t-14.5 34.5z" />
<glyph unicode="&#xea;" horiz-adv-x="1101" d="M106 444q0 94 34 179.5t93.5 150t143.5 102t186 37.5q94 0 173 -34.5t136.5 -96t89 -145.5t31.5 -182q0 -23 -15 -37.5t-36 -14.5h-711q2 -61 26 -119.5t68 -103.5t107.5 -72.5t142.5 -27.5q170 0 279 129q8 10 19.5 18.5t27.5 8.5q25 0 38 -15.5t13 -36.5q0 -18 -12 -37 q-53 -72 -147.5 -122t-217.5 -50q-111 0 -197.5 39t-147 103.5t-92.5 149.5t-32 177zM236 506h645q-6 63 -32 119.5t-68 97.5t-97 64.5t-121 23.5q-68 0 -125 -24.5t-100 -65.5t-69.5 -96.5t-32.5 -118.5zM330 1087.5q0 16.5 5 23.5t13 15l195 181q16 16 38.5 16t39.5 -16 l194 -181q8 -8 13.5 -15t5.5 -23.5t-14.5 -28.5t-33 -12t-32.5 12l-172 151l-172 -151q-16 -12 -33 -12q-18 0 -32.5 12t-14.5 28.5z" />
<glyph unicode="&#xeb;" horiz-adv-x="1101" d="M106 444q0 94 34 179.5t93.5 150t143.5 102t186 37.5q94 0 173 -34.5t136.5 -96t89 -145.5t31.5 -182q0 -23 -15 -37.5t-36 -14.5h-711q2 -61 26 -119.5t68 -103.5t107.5 -72.5t142.5 -27.5q170 0 279 129q8 10 19.5 18.5t27.5 8.5q25 0 38 -15.5t13 -36.5q0 -18 -12 -37 q-53 -72 -147.5 -122t-217.5 -50q-111 0 -197.5 39t-147 103.5t-92.5 149.5t-32 177zM236 506h645q-6 63 -32 119.5t-68 97.5t-97 64.5t-121 23.5q-68 0 -125 -24.5t-100 -65.5t-69.5 -96.5t-32.5 -118.5zM324 1157q0 35 23.5 58.5t58 23.5t58 -23.5t23.5 -58.5t-23.5 -58.5 t-58 -23.5t-58 23.5t-23.5 58.5zM664 1157q0 35 23.5 58.5t58 23.5t58 -23.5t23.5 -58.5t-23.5 -58.5t-58 -23.5t-58 23.5t-23.5 58.5z" />
<glyph unicode="&#xec;" horiz-adv-x="450" d="M27 1315q0 23 15 35t36 12q29 0 43 -23l147 -209q12 -18 13 -32q0 -20 -14.5 -34.5t-35 -14.5t-31 9t-20.5 23l-141 199q-4 6 -8 14.5t-4 20.5zM164 45v799q0 27 17.5 44t44 17t44 -17.5t17.5 -43.5v-799q0 -27 -17.5 -44t-44 -17t-44 17t-17.5 44z" />
<glyph unicode="&#xed;" horiz-adv-x="450" d="M164 45v799q0 27 17.5 44t44 17t44 -17.5t17.5 -43.5v-799q0 -27 -17.5 -44t-44 -17t-44 17t-17.5 44zM168 1098q0 14 12 32l148 209q14 23 43 23q20 0 35.5 -12.5t15.5 -34.5q0 -12 -4 -20.5t-8 -14.5l-142 -199q-10 -12 -20 -22t-30.5 -10t-35 14.5t-14.5 34.5z" />
<glyph unicode="&#xee;" horiz-adv-x="450" d="M-25 1087.5q0 16.5 5.5 23.5t13.5 15l194 181q16 16 39 16t39 -16l195 -181q8 -8 13 -15t5 -23.5t-14 -28.5t-32.5 -12t-33.5 12l-172 151l-172 -151q-16 -12 -32 -12q-18 0 -33 12t-15 28.5zM164 45v799q0 27 17.5 44t44 17t44 -17.5t17.5 -43.5v-799q0 -27 -17.5 -44 t-44 -17t-44 17t-17.5 44z" />
<glyph unicode="&#xef;" horiz-adv-x="450" d="M-35 1157q0 35 23.5 58.5t58.5 23.5t58.5 -23.5t23.5 -58.5t-23.5 -58.5t-58.5 -23.5t-58.5 23.5t-23.5 58.5zM164 45v799q0 27 17.5 44t44 17t44 -17.5t17.5 -43.5v-799q0 -27 -17.5 -44t-44 -17t-44 17t-17.5 44zM305 1157q0 35 23.5 58.5t58.5 23.5t58.5 -23.5 t23.5 -58.5t-23.5 -58.5t-58.5 -23.5t-58.5 23.5t-23.5 58.5z" />
<glyph unicode="&#xf0;" horiz-adv-x="1114" d="M113 412q0 96 32.5 175t90 135t136.5 87t173 31q109 0 203 -52.5t149 -138.5q-29 129 -90.5 236.5t-155.5 195.5l-125 -104q-16 -12 -34 -12q-20 0 -35 13t-15 32q0 23 23 41l115 94q-35 29 -63 49t-55.5 36.5t-58.5 33.5l-71 39q-27 12 -27 43q0 18 13.5 30.5t33.5 12.5 q12 0 25 -7q74 -33 146.5 -77.5t131.5 -98.5l103 86q18 14 34.5 14.5t32 -15t15.5 -31.5q0 -23 -21 -39l-92 -78q135 -123 208 -289t73 -393q0 -94 -29 -182.5t-86 -156t-142 -107.5t-196 -40q-117 0 -201 41t-138 104.5t-78.5 140.5t-24.5 151zM231 412q0 -72 24 -133.5 t65.5 -107.5t101 -72.5t133.5 -26.5q80 0 141.5 28.5t104.5 75.5t64.5 107.5t21.5 126.5q0 80 -28 141t-73 104t-104 65.5t-121 22.5q-160 0 -245 -92t-85 -239z" />
<glyph unicode="&#xf1;" horiz-adv-x="1157" d="M164 45v799q0 27 17.5 44t44 17t44 -17.5t17.5 -43.5v-107q49 86 135 131t199 45q88 0 159.5 -30.5t120.5 -86t76 -131t27 -163.5v-457q0 -27 -17.5 -44t-44.5 -17t-44 17t-17 44v455q0 139 -72 220t-215 81q-66 0 -122 -22.5t-97 -65.5t-64.5 -103.5t-23.5 -136.5v-428 q0 -27 -17.5 -44t-44 -17t-44 17t-17.5 44zM291 1104q0 16 12 33q4 6 9 12t12 14q31 39 65.5 57.5t85.5 18.5q53 0 105 -29l62 -35q26 -15 48.5 -15.5t35.5 10t36 32.5l20 21q6 6 14.5 12t25 6t31.5 -11t15 -30q0 -20 -12 -35q-4 -6 -11 -14l-14 -16q-29 -31 -61.5 -51.5 t-77.5 -20.5q-35 0 -60.5 11t-60.5 32l-50 27q-19 10 -46 10q-20 0 -37.5 -8.5t-38.5 -30.5l-22 -25q-6 -6 -14.5 -12t-24.5 -6t-31.5 12.5t-15.5 30.5z" />
<glyph unicode="&#xf2;" horiz-adv-x="1146" d="M106 444.5q0 98.5 35 183.5t96.5 148.5t147.5 100t188.5 36.5t188.5 -36.5t147.5 -100t96 -148.5t34.5 -183.5t-34.5 -183.5t-96 -148.5t-147.5 -100.5t-188.5 -37t-188.5 37t-147.5 100.5t-96.5 148.5t-35 183.5zM229 444.5q0 -77.5 27 -144.5t73 -115t109.5 -75.5 t135 -27.5t135 27.5t109.5 75.5t73 115t27 144.5t-27 144t-73 115t-109.5 76t-135 27.5t-135 -27.5t-109.5 -76t-73 -115t-27 -144zM358 1315q0 23 15.5 35t36.5 12q29 0 43 -23l147 -209q12 -18 12 -32q0 -20 -14 -34.5t-34.5 -14.5t-31 9t-20.5 23l-141 199 q-4 6 -8.5 14.5t-4.5 20.5z" />
<glyph unicode="&#xf3;" horiz-adv-x="1146" d="M106 444.5q0 98.5 35 183.5t96.5 148.5t147.5 100t188.5 36.5t188.5 -36.5t147.5 -100t96 -148.5t34.5 -183.5t-34.5 -183.5t-96 -148.5t-147.5 -100.5t-188.5 -37t-188.5 37t-147.5 100.5t-96.5 148.5t-35 183.5zM229 444.5q0 -77.5 27 -144.5t73 -115t109.5 -75.5 t135 -27.5t135 27.5t109.5 75.5t73 115t27 144.5t-27 144t-73 115t-109.5 76t-135 27.5t-135 -27.5t-109.5 -76t-73 -115t-27 -144zM483 1098q0 14 13 32l147 209q14 23 43 23q20 0 35.5 -12.5t15.5 -34.5q0 -12 -4 -20.5t-8 -14.5l-141 -199q-10 -12 -20.5 -22t-31 -10 t-35 14.5t-14.5 34.5z" />
<glyph unicode="&#xf4;" horiz-adv-x="1146" d="M106 444.5q0 98.5 35 183.5t96.5 148.5t147.5 100t188.5 36.5t188.5 -36.5t147.5 -100t96 -148.5t34.5 -183.5t-34.5 -183.5t-96 -148.5t-147.5 -100.5t-188.5 -37t-188.5 37t-147.5 100.5t-96.5 148.5t-35 183.5zM229 444.5q0 -77.5 27 -144.5t73 -115t109.5 -75.5 t135 -27.5t135 27.5t109.5 75.5t73 115t27 144.5t-27 144t-73 115t-109.5 76t-135 27.5t-135 -27.5t-109.5 -76t-73 -115t-27 -144zM322 1087.5q0 16.5 5 23.5t13 15l195 181q16 16 38.5 16t38.5 -16l195 -181q8 -8 13 -15t5 -23.5t-14 -28.5t-32.5 -12t-33.5 12l-172 151 l-172 -151q-16 -12 -32 -12q-18 0 -32.5 12t-14.5 28.5z" />
<glyph unicode="&#xf5;" horiz-adv-x="1146" d="M106 444.5q0 98.5 35 183.5t96.5 148.5t147.5 100t188.5 36.5t188.5 -36.5t147.5 -100t96 -148.5t34.5 -183.5t-34.5 -183.5t-96 -148.5t-147.5 -100.5t-188.5 -37t-188.5 37t-147.5 100.5t-96.5 148.5t-35 183.5zM229 444.5q0 -77.5 27 -144.5t73 -115t109.5 -75.5 t135 -27.5t135 27.5t109.5 75.5t73 115t27 144.5t-27 144t-73 115t-109.5 76t-135 27.5t-135 -27.5t-109.5 -76t-73 -115t-27 -144zM303 1104q0 16 12 33q4 6 9.5 12t11.5 14q31 39 65.5 57.5t85.5 18.5q53 0 105 -29l62 -35q26 -15 48.5 -15.5t36 10t35.5 32.5l21 21 q6 6 14 12t24.5 6t32 -11t15.5 -30q0 -20 -13 -35q-4 -6 -11 -14t-13 -16q-29 -31 -61.5 -51.5t-77.5 -20.5q-35 0 -61 11t-60 32l-50 27q-19 10 -47 10q-20 0 -37.5 -8.5t-37.5 -30.5l-23 -25q-6 -6 -14 -12t-24.5 -6t-32 12.5t-15.5 30.5z" />
<glyph unicode="&#xf6;" horiz-adv-x="1146" d="M106 444.5q0 98.5 35 183.5t96.5 148.5t147.5 100t188.5 36.5t188.5 -36.5t147.5 -100t96 -148.5t34.5 -183.5t-34.5 -183.5t-96 -148.5t-147.5 -100.5t-188.5 -37t-188.5 37t-147.5 100.5t-96.5 148.5t-35 183.5zM229 444.5q0 -77.5 27 -144.5t73 -115t109.5 -75.5 t135 -27.5t135 27.5t109.5 75.5t73 115t27 144.5t-27 144t-73 115t-109.5 76t-135 27.5t-135 -27.5t-109.5 -76t-73 -115t-27 -144zM311 1157q0 35 23.5 58.5t58.5 23.5t58.5 -23.5t23.5 -58.5t-23.5 -58.5t-58.5 -23.5t-58.5 23.5t-23.5 58.5zM651 1157q0 35 23.5 58.5 t58.5 23.5t58.5 -23.5t23.5 -58.5t-23.5 -58.5t-58.5 -23.5t-58.5 23.5t-23.5 58.5z" />
<glyph unicode="&#xf7;" horiz-adv-x="1167" d="M133 661.5q0 24.5 17.5 40t42.5 15.5h782q25 0 42 -15.5t17 -40t-17.5 -40t-41.5 -15.5h-782q-25 0 -42.5 15.5t-17.5 40zM498 301q0 35 25.5 60.5t60 25.5t60.5 -25.5t26 -60.5t-26 -60.5t-60.5 -25.5t-60 25.5t-25.5 60.5zM498 1022q0 35 25.5 60.5t60 25.5t60.5 -25.5 t26 -60.5t-26 -60.5t-60.5 -25.5t-60 25.5t-25.5 60.5z" />
<glyph unicode="&#xf8;" horiz-adv-x="1146" d="M106 -90q0 10 4.5 17t8.5 14l129 161q-68 63 -105 151.5t-37 190.5q0 98 35 183.5t96.5 149t147.5 100t188 36.5q76 0 141.5 -20.5t121.5 -54.5l129 161q12 16 32 17q18 0 29.5 -10.5t13.5 -26.5q0 -16 -10 -29l-131 -164q66 -66 103.5 -152.5t37.5 -189.5 q0 -98 -34.5 -183t-96 -148.5t-147.5 -100.5t-189 -37q-152 0 -262 76l-127 -157q-18 -20 -34 -21q-14 0 -29 10.5t-15 26.5zM229 444q0 -76 25 -140t65 -111l445 557q-82 57 -191 57q-72 0 -135 -27.5t-109 -76t-73 -115t-27 -144.5zM381 139q86 -57 192 -57 q72 0 135.5 27.5t109.5 75.5t73 115t27 144q0 74 -25 138.5t-68 111.5z" />
<glyph unicode="&#xf9;" horiz-adv-x="1157" d="M154 387v457q0 27 17 44t44 17t44 -17.5t17 -43.5v-455q0 -139 72 -220t215 -81q66 0 122 22.5t97 65.5t64.5 103.5t23.5 136.5v428q0 27 17.5 44t44 17t44 -17.5t17.5 -43.5v-799q0 -27 -17.5 -44t-44 -17t-44 17t-17.5 44v107q-49 -86 -135 -131.5t-198 -45.5 q-90 0 -161 31t-120 86t-75.5 130t-26.5 165zM416 1315q0 23 15 35t36 12q29 0 43 -23l147 -209q12 -18 13 -32q0 -20 -14.5 -34.5t-35 -14.5t-30.5 9t-21 23l-141 199q-4 6 -8 14.5t-4 20.5z" />
<glyph unicode="&#xfa;" horiz-adv-x="1157" d="M154 387v457q0 27 17 44t44 17t44 -17.5t17 -43.5v-455q0 -139 72 -220t215 -81q66 0 122 22.5t97 65.5t64.5 103.5t23.5 136.5v428q0 27 17.5 44t44 17t44 -17.5t17.5 -43.5v-799q0 -27 -17.5 -44t-44 -17t-44 17t-17.5 44v107q-49 -86 -135 -131.5t-198 -45.5 q-90 0 -161 31t-120 86t-75.5 130t-26.5 165zM496 1098q0 14 12 32l147 209q14 23 43 23q20 0 36 -12.5t16 -34.5q0 -12 -4.5 -20.5t-8.5 -14.5l-141 -199q-10 -12 -20.5 -22t-31 -10t-34.5 14.5t-14 34.5z" />
<glyph unicode="&#xfb;" horiz-adv-x="1157" d="M154 387v457q0 27 17 44t44 17t44 -17.5t17 -43.5v-455q0 -139 72 -220t215 -81q66 0 122 22.5t97 65.5t64.5 103.5t23.5 136.5v428q0 27 17.5 44t44 17t44 -17.5t17.5 -43.5v-799q0 -27 -17.5 -44t-44 -17t-44 17t-17.5 44v107q-49 -86 -135 -131.5t-198 -45.5 q-90 0 -161 31t-120 86t-75.5 130t-26.5 165zM332 1087.5q0 16.5 5 23.5t13 15l195 181q16 16 38.5 16t39.5 -16l194 -181q8 -8 13.5 -15t5.5 -23.5t-14.5 -28.5t-33 -12t-32.5 12l-172 151l-172 -151q-16 -12 -33 -12q-18 0 -32.5 12t-14.5 28.5z" />
<glyph unicode="&#xfc;" horiz-adv-x="1157" d="M154 387v457q0 27 17 44t44 17t44 -17.5t17 -43.5v-455q0 -139 72 -220t215 -81q66 0 122 22.5t97 65.5t64.5 103.5t23.5 136.5v428q0 27 17.5 44t44 17t44 -17.5t17.5 -43.5v-799q0 -27 -17.5 -44t-44 -17t-44 17t-17.5 44v107q-49 -86 -135 -131.5t-198 -45.5 q-90 0 -161 31t-120 86t-75.5 130t-26.5 165zM328 1157q0 35 23.5 58.5t58 23.5t58.5 -23.5t24 -58.5t-24 -58.5t-58.5 -23.5t-58 23.5t-23.5 58.5zM668 1157q0 35 23.5 58.5t58 23.5t58 -23.5t23.5 -58.5t-23.5 -58.5t-58 -23.5t-58 23.5t-23.5 58.5z" />
<glyph unicode="&#xfd;" horiz-adv-x="886" d="M27 850q0 23 15 39t42 16q23 0 34 -10t19 -29l309 -729l304 733q6 16 17 25.5t34 9.5q27 0 41 -16.5t14 -38.5q0 -12 -6 -27l-113 -276l-99 -240l-89 -213q-59 -143 -156.5 -272t-234.5 -211q-16 -10 -37 -10q-25 0 -39 14t-14 37q0 29 36 51q84 57 151 127t128 176 l-348 813q-8 21 -8 31zM369 1098q0 14 12 32l147 209q14 23 43 23q20 0 36 -12.5t16 -34.5q0 -12 -4.5 -20.5t-8.5 -14.5l-141 -199q-10 -12 -20.5 -22t-31 -10t-34.5 14.5t-14 34.5z" />
<glyph unicode="&#xfe;" horiz-adv-x="1208" d="M164 -338v1657q0 27 17.5 44t44 17t44 -17t17.5 -44v-594q59 88 151 138t215 50q94 0 176 -34.5t142.5 -97t95.5 -148.5t35 -188.5t-35 -188.5t-95.5 -148.5t-142 -97.5t-176.5 -35q-123 0 -215 50.5t-151 138.5v-502q0 -27 -17.5 -44t-44 -17t-44 17t-17.5 44z M287 444.5q0 -73.5 24.5 -140t70.5 -117t109.5 -79t143.5 -28.5q76 0 139.5 26.5t109.5 75.5t70.5 116t24.5 146.5t-24.5 146t-70.5 116t-109.5 76t-139.5 26.5q-80 0 -143.5 -28.5t-109.5 -79t-70.5 -117t-24.5 -140z" />
<glyph unicode="&#xff;" horiz-adv-x="886" d="M27 850q0 23 15 39t42 16q23 0 34 -10t19 -29l309 -729l304 733q6 16 17 25.5t34 9.5q27 0 41 -16.5t14 -38.5q0 -12 -6 -27l-113 -276l-99 -240l-89 -213q-59 -143 -156.5 -272t-234.5 -211q-16 -10 -37 -10q-25 0 -39 14t-14 37q0 29 36 51q84 57 151 127t128 176 l-348 813q-8 21 -8 31zM195 1157q0 35 23.5 58.5t58 23.5t58 -23.5t23.5 -58.5t-23.5 -58.5t-58 -23.5t-58 23.5t-23.5 58.5zM535 1157q0 35 23.5 58.5t58 23.5t58 -23.5t23.5 -58.5t-23.5 -58.5t-58 -23.5t-58 23.5t-23.5 58.5z" />
<glyph unicode="&#x152;" horiz-adv-x="2355" d="M106.5 682q-0.5 143 50 271t140.5 224.5t217 154t281 57.5q186 0 328.5 -86t232.5 -228v228q0 27 17.5 44t43.5 17h789q23 0 39 -16.5t16 -39t-16.5 -39t-38.5 -16.5h-727v-493h422q23 0 39 -16.5t16 -39t-16.5 -39t-38.5 -16.5h-422v-538h729q23 0 39 -16.5t16 -39 t-16.5 -39t-38.5 -16.5h-791q-27 0 -44 17.5t-17 43.5v228q-86 -141 -230.5 -227.5t-330.5 -86.5q-154 0 -281 56.5t-217 154t-140 225.5t-50.5 271zM229 682q0 -117 39 -225.5t112 -191.5t177.5 -132t237.5 -49q131 0 235.5 49t177 132t110.5 191.5t38 225.5t-38 225.5 t-110.5 191.5t-177 132t-235.5 49q-133 0 -237.5 -49t-177.5 -132t-112 -191.5t-39 -225.5z" />
<glyph unicode="&#x153;" horiz-adv-x="1912" d="M106 444.5q0 98.5 35 183.5t96.5 148.5t147.5 100t188 36.5q137 0 242 -62.5t164 -166.5q57 102 158.5 165.5t236.5 63.5q94 0 173 -34.5t136.5 -96t89 -145.5t31.5 -182q0 -23 -15 -37.5t-36 -14.5h-711q2 -61 26 -119.5t68 -103.5t107.5 -72.5t142.5 -27.5 q170 0 279 129q8 10 19.5 18.5t27.5 8.5q25 0 38 -15.5t13 -36.5q0 -18 -12 -37q-53 -72 -147.5 -122t-217.5 -50q-145 0 -248.5 63.5t-158.5 164.5q-59 -104 -164.5 -166t-241.5 -62q-102 0 -188 37t-147.5 100.5t-96.5 148.5t-35 183.5zM229 444.5q0 -77.5 27 -144.5 t73 -115t109.5 -75.5t135 -27.5t135 27.5t109.5 75.5t72.5 115t26.5 144.5t-26.5 144t-72.5 115t-109.5 76t-135 27.5t-135 -27.5t-109.5 -76t-73 -115t-27 -144zM1047 506h645q-6 63 -32 119.5t-68 97.5t-97 64.5t-121 23.5q-68 0 -125 -24.5t-100 -65.5t-69.5 -96.5 t-32.5 -118.5z" />
<glyph unicode="&#x178;" horiz-adv-x="1130" d="M10 1325q0 27 16.5 41t39.5 14q33 0 53 -28l446 -639l447 639q20 29 53 28q23 0 39 -14t16 -41q0 -16 -12 -35l-481 -692v-553q0 -27 -17.5 -44t-44 -17t-44 17t-17.5 44v553l-481 692q-13 19 -13 35zM283 1607.5q0 34.5 23.5 58.5t58 24t58 -24t23.5 -58.5t-23.5 -58 t-58 -23.5t-58 23.5t-23.5 58zM684 1607.5q0 34.5 23.5 58.5t58.5 24t58.5 -24t23.5 -58.5t-23.5 -58t-58.5 -23.5t-58.5 23.5t-23.5 58z" />
<glyph unicode="&#x2c6;" horiz-adv-x="749" d="M123 1087.5q0 16.5 5 23.5t13 15l195 181q16 16 38.5 16t39.5 -16l194 -181q8 -8 13.5 -15t5.5 -23.5t-14.5 -28.5t-33 -12t-32.5 12l-172 151l-172 -151q-16 -12 -33 -12q-18 0 -32.5 12t-14.5 28.5z" />
<glyph unicode="&#x2dc;" horiz-adv-x="823" d="M123 1104q0 16 12 33q4 6 9.5 12t11.5 14q31 39 65.5 57.5t85.5 18.5q53 0 105 -29l62 -35q26 -15 48.5 -15.5t35.5 10t36 32.5l20 21q6 6 14.5 12t25 6t31.5 -11t15 -30q0 -20 -12 -35q-4 -6 -11 -14t-13 -16q-29 -31 -62 -51.5t-78 -20.5q-35 0 -60.5 11t-60.5 32 l-50 27q-19 10 -46 10q-20 0 -37.5 -8.5t-38.5 -30.5l-22 -25q-6 -6 -14.5 -12t-24.5 -6t-31.5 12.5t-15.5 30.5z" />
<glyph unicode="&#x2000;" horiz-adv-x="859" />
<glyph unicode="&#x2001;" horiz-adv-x="1718" />
<glyph unicode="&#x2002;" horiz-adv-x="859" />
<glyph unicode="&#x2003;" horiz-adv-x="1718" />
<glyph unicode="&#x2004;" horiz-adv-x="572" />
<glyph unicode="&#x2005;" horiz-adv-x="429" />
<glyph unicode="&#x2006;" horiz-adv-x="286" />
<glyph unicode="&#x2007;" horiz-adv-x="286" />
<glyph unicode="&#x2008;" horiz-adv-x="214" />
<glyph unicode="&#x2009;" horiz-adv-x="343" />
<glyph unicode="&#x200a;" horiz-adv-x="95" />
<glyph unicode="&#x2010;" horiz-adv-x="897" d="M143 507.5q0 24.5 15.5 38t38.5 13.5h503q23 0 38.5 -13.5t15.5 -38t-15.5 -37.5t-38.5 -13h-503q-23 0 -38.5 13t-15.5 37.5z" />
<glyph unicode="&#x2011;" horiz-adv-x="897" d="M143 507.5q0 24.5 15.5 38t38.5 13.5h503q23 0 38.5 -13.5t15.5 -38t-15.5 -37.5t-38.5 -13h-503q-23 0 -38.5 13t-15.5 37.5z" />
<glyph unicode="&#x2012;" horiz-adv-x="897" d="M143 507.5q0 24.5 15.5 38t38.5 13.5h503q23 0 38.5 -13.5t15.5 -38t-15.5 -37.5t-38.5 -13h-503q-23 0 -38.5 13t-15.5 37.5z" />
<glyph unicode="&#x2013;" horiz-adv-x="1169" d="M143 507.5q0 24.5 15.5 38t38.5 13.5h776q23 0 38 -13.5t15 -38t-15.5 -37.5t-37.5 -13h-776q-23 0 -38.5 13t-15.5 37.5z" />
<glyph unicode="&#x2014;" horiz-adv-x="1570" d="M143 507.5q0 24.5 15.5 38t38.5 13.5h1177q23 0 38 -13.5t15 -38t-15 -37.5t-38 -13h-1177q-23 0 -38.5 13t-15.5 37.5z" />
<glyph unicode="&#x2018;" horiz-adv-x="448" d="M154 909v88q0 92 12 168t43 160q8 23 21.5 39t41.5 16q25 0 39.5 -13t14.5 -36q0 -12 -3.5 -21.5t-7.5 -19.5q-29 -86 -40 -151.5t-11 -141.5v-88q0 -25 -14 -41t-41 -16t-41 16t-14 41z" />
<glyph unicode="&#x2019;" horiz-adv-x="448" d="M143 901q0 12 3.5 21.5t7.5 19.5q29 86 40 151.5t11 141.5v88q0 25 14 41t41 16t41 -16t14 -41v-88q0 -92 -12 -168t-43 -160q-8 -23 -21.5 -39t-41.5 -16q-25 0 -39.5 13t-14.5 36z" />
<glyph unicode="&#x201a;" horiz-adv-x="421" d="M96 -283q0 12 3 21.5t7 19.5q29 86 40.5 151.5t11.5 141.5v88q0 25 14 41.5t41 16.5t41 -16.5t14 -41.5v-88q0 -92 -12 -168t-43 -159q-8 -23 -21.5 -39.5t-41.5 -16.5q-25 0 -39.5 13t-14.5 36z" />
<glyph unicode="&#x201c;" horiz-adv-x="811" d="M154 909v88q0 92 12 168t43 160q8 23 21.5 39t41.5 16q25 0 39.5 -13t14.5 -36q0 -12 -3.5 -21.5t-7.5 -19.5q-29 -86 -40 -151.5t-11 -141.5v-88q0 -25 -14 -41t-41 -16t-41 16t-14 41zM516 909v88q0 92 12.5 168t42.5 160q8 23 21.5 39t42.5 16q25 0 39 -13t14 -36 q0 -12 -3 -21.5t-7 -19.5q-29 -86 -40 -151.5t-11 -141.5v-88q0 -25 -14.5 -41t-41 -16t-41 16t-14.5 41z" />
<glyph unicode="&#x201d;" horiz-adv-x="811" d="M143 901q0 12 3.5 21.5t7.5 19.5q29 86 40 151.5t11 141.5v88q0 25 14 41t41 16t41 -16t14 -41v-88q0 -92 -12 -168t-43 -160q-8 -23 -21.5 -39t-41.5 -16q-25 0 -39.5 13t-14.5 36zM506 901q0 12 3 21.5t7 19.5q29 86 40 151.5t11 141.5v88q0 25 14.5 41t41 16t41 -16 t14.5 -41v-88q0 -92 -12.5 -168t-42.5 -160q-8 -23 -21.5 -39t-42.5 -16q-25 0 -39 13t-14 36z" />
<glyph unicode="&#x201e;" horiz-adv-x="784" d="M96 -283q0 12 3 21.5t7 19.5q29 86 40.5 151.5t11.5 141.5v88q0 25 14 41.5t41 16.5t41 -16.5t14 -41.5v-88q0 -92 -12 -168t-43 -159q-8 -23 -21.5 -39.5t-41.5 -16.5q-25 0 -39.5 13t-14.5 36zM459 -283q0 12 3 21.5t7 19.5q29 86 40 151.5t11 141.5v88q0 25 14.5 41.5 t41 16.5t41 -16.5t14.5 -41.5v-88q0 -92 -12.5 -168t-43.5 -159q-8 -23 -21 -39.5t-42 -16.5q-25 0 -39 13t-14 36z" />
<glyph unicode="&#x2022;" horiz-adv-x="724" d="M133 657.5q0 47.5 18.5 89t49 72.5t72.5 49.5t89.5 18.5t89.5 -18.5t72.5 -49.5t49 -72.5t18.5 -89t-18.5 -89.5t-49 -72.5t-72.5 -49t-89.5 -18.5t-89.5 18.5t-72.5 49t-49 72.5t-18.5 89.5z" />
<glyph unicode="&#x2026;" horiz-adv-x="1437" d="M154 74q0 35 25.5 60.5t60 25.5t60.5 -25.5t26 -60.5t-26 -60.5t-60.5 -25.5t-60 25.5t-25.5 60.5zM633 74q0 35 25.5 60.5t60.5 25.5t60.5 -25.5t25.5 -60.5t-25.5 -60.5t-60.5 -25.5t-60.5 25.5t-25.5 60.5zM1112 74q0 35 25.5 60.5t60.5 25.5t60.5 -25.5t25.5 -60.5 t-25.5 -60.5t-60.5 -25.5t-60.5 25.5t-25.5 60.5z" />
<glyph unicode="&#x202f;" horiz-adv-x="343" />
<glyph unicode="&#x2039;" horiz-adv-x="700" d="M123 436.5q0 20.5 16 36.5l324 311q10 8 18 12.5t21 4.5q23 0 39 -14.5t16 -34.5q0 -14 -6 -24.5t-14 -18.5l-289 -273l289 -272q8 -8 14 -18.5t6 -24.5q0 -20 -16.5 -34.5t-38.5 -14.5q-12 0 -20.5 4t-18.5 12l-324 311q-16 17 -16 37.5z" />
<glyph unicode="&#x203a;" horiz-adv-x="700" d="M143 121q0 14 6.5 24.5t14.5 18.5l289 272l-289 273q-8 8 -14.5 18t-6.5 25q0 20 16.5 34.5t39.5 14.5q12 0 20 -4t19 -13l323 -311q16 -16 16.5 -36.5t-16.5 -37.5l-323 -311q-10 -8 -18.5 -12t-20.5 -4q-23 0 -39.5 14.5t-16.5 34.5z" />
<glyph unicode="&#x205f;" horiz-adv-x="429" />
<glyph unicode="&#x20ac;" horiz-adv-x="1462" d="M82 518.5q0 22.5 15.5 34.5t37.5 12h168q-6 55 -6 117q0 57 6 117h-168q-23 0 -38 12t-15 34.5t15.5 35t37.5 12.5h182q23 106 70 197.5t114.5 158t158 103.5t198.5 37q86 0 154.5 -23t125 -62.5t99.5 -92t78 -111.5q14 -25 14 -41q0 -25 -16.5 -40t-40.5 -15 q-31 0 -47 28q-72 125 -158 187.5t-209 62.5q-86 0 -153.5 -29.5t-120 -82t-88 -124t-54.5 -153.5h459q23 0 38 -12.5t15 -35t-15 -34.5t-38 -12h-475q-6 -59 -6 -117q0 -61 6 -117h475q23 0 38 -12t15 -34.5t-15 -35t-38 -12.5h-459q18 -82 54 -153.5t88.5 -124t120 -82 t153.5 -29.5q123 0 209 62.5t158 187.5q16 29 47 28q25 0 41 -15t16 -40q0 -16 -14 -41q-35 -59 -78 -111.5t-99.5 -92.5t-125 -62.5t-154.5 -22.5q-109 0 -199 37t-157.5 103.5t-114.5 156.5t-70 199h-182q-23 0 -38 12.5t-15 35z" />
<glyph unicode="&#x2122;" horiz-adv-x="1519" d="M113 1327q0 16 12 26.5t29 10.5h452q16 0 28.5 -10.5t12.5 -26.5t-12 -27.5t-29 -11.5h-184v-493q0 -18 -12.5 -29.5t-28.5 -11.5q-43 0 -43 41v493h-184q-16 0 -28.5 11.5t-12.5 27.5zM752 793v540q0 39 39 39q16 0 24 -8t14 -21l230 -475l229 475q6 12 14.5 20.5 t24.5 8.5q39 0 39 -39v-540q0 -39 -39 -39q-16 0 -28.5 11t-12.5 28v378l-188 -393q-6 -10 -14.5 -17t-25 -7t-24.5 7t-14 17l-189 393v-378q0 -16 -12 -27.5t-28 -11.5q-39 0 -39 39z" />
<glyph unicode="&#x25fc;" horiz-adv-x="905" d="M0 0v905h905v-905h-905z" />
<glyph unicode="&#xfb01;" horiz-adv-x="1101" d="M25 837.5q0 22.5 14 37t37 14.5h143v127q0 168 77 258t251 90h43q23 0 37 -14.5t14 -37t-14.5 -36.5t-36.5 -14h-37q-106 0 -158.5 -53.5t-52.5 -190.5v-129h233q20 0 36 -14.5t16 -37t-15.5 -37t-36.5 -14.5h-233v-741q0 -27 -17.5 -44t-44 -17t-44 17t-17.5 44v741 h-143q-23 0 -37 14.5t-14 37zM803 1143q0 31 22.5 53.5t53 22.5t53 -22.5t22.5 -53.5t-22.5 -53.5t-53 -22.5t-53 22.5t-22.5 53.5zM817 45v799q0 27 17.5 44t44 17t44 -17.5t17.5 -43.5v-799q0 -27 -17.5 -44t-44 -17t-44 17t-17.5 44z" />
<glyph unicode="&#xfb02;" horiz-adv-x="1107" d="M25 837.5q0 22.5 14 37t37 14.5h143v127q0 168 77 258t251 90h43q23 0 37 -14.5t14 -37t-14.5 -36.5t-36.5 -14h-37q-106 0 -158.5 -53.5t-52.5 -190.5v-129h233q20 0 36 -14.5t16 -37t-15.5 -37t-36.5 -14.5h-233v-741q0 -27 -17.5 -44t-44 -17t-44 17t-17.5 44v741 h-143q-23 0 -37 14.5t-14 37zM821 45v1274q0 27 17.5 44t44 17t44 -17t17.5 -44v-1274q0 -27 -17.5 -44t-44 -17t-44 17t-17.5 44z" />
<glyph unicode="&#xfb03;" horiz-adv-x="1765" d="M25 837.5q0 22.5 14 37t37 14.5h143v127q0 168 77 258t251 90h43q23 0 37 -14.5t14 -37t-14.5 -36.5t-36.5 -14h-37q-106 0 -158.5 -53.5t-52.5 -190.5v-129h233q20 0 36 -14.5t16 -37t-15.5 -37t-36.5 -14.5h-233v-741q0 -27 -17.5 -44t-44 -17t-44 17t-17.5 44v741 h-143q-23 0 -37 14.5t-14 37zM682 837.5q0 22.5 14.5 37t36.5 14.5h144v127q0 168 76.5 258t250.5 90h43q23 0 37 -14.5t14 -37t-14 -36.5t-37 -14h-37q-106 0 -158.5 -53.5t-52.5 -190.5v-129h234q20 0 35.5 -14.5t15.5 -37t-15.5 -37t-35.5 -14.5h-234v-741q0 -27 -17 -44 t-44 -17t-44 17t-17 44v741h-144q-23 0 -37 14.5t-14 37zM1462 1159q0 33 22.5 55.5t55.5 22.5t55.5 -22.5t22.5 -55.5t-22.5 -55.5t-55.5 -22.5t-55.5 22.5t-22.5 55.5zM1479 45v799q0 27 17 44t44 17t44.5 -17.5t17.5 -43.5v-799q0 -27 -17.5 -44t-44.5 -17t-44 17t-17 44 z" />
<glyph unicode="&#xfb04;" horiz-adv-x="1765" d="M25 837.5q0 22.5 14 37t37 14.5h143v127q0 168 77 258t251 90h43q23 0 37 -14.5t14 -37t-14.5 -36.5t-36.5 -14h-37q-106 0 -158.5 -53.5t-52.5 -190.5v-129h233q20 0 36 -14.5t16 -37t-15.5 -37t-36.5 -14.5h-233v-741q0 -27 -17.5 -44t-44 -17t-44 17t-17.5 44v741 h-143q-23 0 -37 14.5t-14 37zM682 837.5q0 22.5 14.5 37t36.5 14.5h144v127q0 168 76.5 258t250.5 90h43q23 0 37 -14.5t14 -37t-14 -36.5t-37 -14h-37q-106 0 -158.5 -53.5t-52.5 -190.5v-129h234q20 0 35.5 -14.5t15.5 -37t-15.5 -37t-35.5 -14.5h-234v-741q0 -27 -17 -44 t-44 -17t-44 17t-17 44v741h-144q-23 0 -37 14.5t-14 37zM1479 45v1274q0 27 17 44t44 17t44.5 -17t17.5 -44v-1274q0 -27 -17.5 -44t-44.5 -17t-44 17t-17 44z" />
</font>
</defs>
</svg>
